G04 #@! TF.GenerationSoftware,KiCad,Pcbnew,7.0.5*
G04 #@! TF.CreationDate,2023-07-24T06:03:43-06:00*
G04 #@! TF.ProjectId,BIRDS-X-PCB,42495244-532d-4582-9d50-43422e6b6963,rev?*
G04 #@! TF.SameCoordinates,Original*
G04 #@! TF.FileFunction,Soldermask,Top*
G04 #@! TF.FilePolarity,Negative*
%FSLAX46Y46*%
G04 Gerber Fmt 4.6, Leading zero omitted, Abs format (unit mm)*
G04 Created by KiCad (PCBNEW 7.0.5) date 2023-07-24 06:03:43*
%MOMM*%
%LPD*%
G01*
G04 APERTURE LIST*
G04 Aperture macros list*
%AMRoundRect*
0 Rectangle with rounded corners*
0 $1 Rounding radius*
0 $2 $3 $4 $5 $6 $7 $8 $9 X,Y pos of 4 corners*
0 Add a 4 corners polygon primitive as box body*
4,1,4,$2,$3,$4,$5,$6,$7,$8,$9,$2,$3,0*
0 Add four circle primitives for the rounded corners*
1,1,$1+$1,$2,$3*
1,1,$1+$1,$4,$5*
1,1,$1+$1,$6,$7*
1,1,$1+$1,$8,$9*
0 Add four rect primitives between the rounded corners*
20,1,$1+$1,$2,$3,$4,$5,0*
20,1,$1+$1,$4,$5,$6,$7,0*
20,1,$1+$1,$6,$7,$8,$9,0*
20,1,$1+$1,$8,$9,$2,$3,0*%
%AMFreePoly0*
4,1,19,0.500000,-0.750000,0.000000,-0.750000,0.000000,-0.744911,-0.071157,-0.744911,-0.207708,-0.704816,-0.327430,-0.627875,-0.420627,-0.520320,-0.479746,-0.390866,-0.500000,-0.250000,-0.500000,0.250000,-0.479746,0.390866,-0.420627,0.520320,-0.327430,0.627875,-0.207708,0.704816,-0.071157,0.744911,0.000000,0.744911,0.000000,0.750000,0.500000,0.750000,0.500000,-0.750000,0.500000,-0.750000,
$1*%
%AMFreePoly1*
4,1,19,0.000000,0.744911,0.071157,0.744911,0.207708,0.704816,0.327430,0.627875,0.420627,0.520320,0.479746,0.390866,0.500000,0.250000,0.500000,-0.250000,0.479746,-0.390866,0.420627,-0.520320,0.327430,-0.627875,0.207708,-0.704816,0.071157,-0.744911,0.000000,-0.744911,0.000000,-0.750000,-0.500000,-0.750000,-0.500000,0.750000,0.000000,0.750000,0.000000,0.744911,0.000000,0.744911,
$1*%
%AMFreePoly2*
4,1,19,0.550000,-0.750000,0.000000,-0.750000,0.000000,-0.744911,-0.071157,-0.744911,-0.207708,-0.704816,-0.327430,-0.627875,-0.420627,-0.520320,-0.479746,-0.390866,-0.500000,-0.250000,-0.500000,0.250000,-0.479746,0.390866,-0.420627,0.520320,-0.327430,0.627875,-0.207708,0.704816,-0.071157,0.744911,0.000000,0.744911,0.000000,0.750000,0.550000,0.750000,0.550000,-0.750000,0.550000,-0.750000,
$1*%
%AMFreePoly3*
4,1,19,0.000000,0.744911,0.071157,0.744911,0.207708,0.704816,0.327430,0.627875,0.420627,0.520320,0.479746,0.390866,0.500000,0.250000,0.500000,-0.250000,0.479746,-0.390866,0.420627,-0.520320,0.327430,-0.627875,0.207708,-0.704816,0.071157,-0.744911,0.000000,-0.744911,0.000000,-0.750000,-0.550000,-0.750000,-0.550000,0.750000,0.000000,0.750000,0.000000,0.744911,0.000000,0.744911,
$1*%
G04 Aperture macros list end*
%ADD10RoundRect,0.237500X0.237500X-0.250000X0.237500X0.250000X-0.237500X0.250000X-0.237500X-0.250000X0*%
%ADD11RoundRect,0.237500X-0.250000X-0.237500X0.250000X-0.237500X0.250000X0.237500X-0.250000X0.237500X0*%
%ADD12RoundRect,0.150000X-0.587500X-0.150000X0.587500X-0.150000X0.587500X0.150000X-0.587500X0.150000X0*%
%ADD13R,1.000000X1.650000*%
%ADD14R,1.000000X1.000000*%
%ADD15R,3.800000X1.000000*%
%ADD16R,2.130000X1.000000*%
%ADD17R,1.000000X3.800000*%
%ADD18R,1.000000X2.130000*%
%ADD19R,1.650000X1.000000*%
%ADD20RoundRect,0.200100X0.949900X0.949900X-0.949900X0.949900X-0.949900X-0.949900X0.949900X-0.949900X0*%
%ADD21C,2.500000*%
%ADD22O,1.000000X1.000000*%
%ADD23RoundRect,0.218750X-0.218750X-0.256250X0.218750X-0.256250X0.218750X0.256250X-0.218750X0.256250X0*%
%ADD24RoundRect,0.218750X0.256250X-0.218750X0.256250X0.218750X-0.256250X0.218750X-0.256250X-0.218750X0*%
%ADD25RoundRect,0.218750X0.218750X0.256250X-0.218750X0.256250X-0.218750X-0.256250X0.218750X-0.256250X0*%
%ADD26RoundRect,0.237500X-0.237500X0.300000X-0.237500X-0.300000X0.237500X-0.300000X0.237500X0.300000X0*%
%ADD27RoundRect,0.100000X-0.637500X-0.100000X0.637500X-0.100000X0.637500X0.100000X-0.637500X0.100000X0*%
%ADD28R,1.700000X1.700000*%
%ADD29O,1.700000X1.700000*%
%ADD30RoundRect,0.250000X-0.412500X-0.650000X0.412500X-0.650000X0.412500X0.650000X-0.412500X0.650000X0*%
%ADD31FreePoly0,0.000000*%
%ADD32FreePoly1,0.000000*%
%ADD33RoundRect,0.237500X-0.237500X0.250000X-0.237500X-0.250000X0.237500X-0.250000X0.237500X0.250000X0*%
%ADD34RoundRect,0.237500X0.250000X0.237500X-0.250000X0.237500X-0.250000X-0.237500X0.250000X-0.237500X0*%
%ADD35RoundRect,0.237500X0.300000X0.237500X-0.300000X0.237500X-0.300000X-0.237500X0.300000X-0.237500X0*%
%ADD36RoundRect,0.237500X0.237500X-0.300000X0.237500X0.300000X-0.237500X0.300000X-0.237500X-0.300000X0*%
%ADD37RoundRect,0.150000X-0.650000X-0.150000X0.650000X-0.150000X0.650000X0.150000X-0.650000X0.150000X0*%
%ADD38RoundRect,0.237500X-0.300000X-0.237500X0.300000X-0.237500X0.300000X0.237500X-0.300000X0.237500X0*%
%ADD39R,1.250000X1.000000*%
%ADD40RoundRect,0.150000X-0.825000X-0.150000X0.825000X-0.150000X0.825000X0.150000X-0.825000X0.150000X0*%
%ADD41FreePoly2,90.000000*%
%ADD42R,1.500000X1.000000*%
%ADD43FreePoly3,90.000000*%
%ADD44FreePoly0,270.000000*%
%ADD45FreePoly1,270.000000*%
%ADD46RoundRect,0.062500X-0.375000X-0.062500X0.375000X-0.062500X0.375000X0.062500X-0.375000X0.062500X0*%
%ADD47RoundRect,0.062500X-0.062500X-0.375000X0.062500X-0.375000X0.062500X0.375000X-0.062500X0.375000X0*%
%ADD48R,3.500000X3.500000*%
%ADD49RoundRect,0.250000X0.650000X-0.412500X0.650000X0.412500X-0.650000X0.412500X-0.650000X-0.412500X0*%
%ADD50RoundRect,0.100000X-0.712500X-0.100000X0.712500X-0.100000X0.712500X0.100000X-0.712500X0.100000X0*%
%ADD51RoundRect,0.249200X-0.600800X-0.450800X0.600800X-0.450800X0.600800X0.450800X-0.600800X0.450800X0*%
%ADD52O,1.700000X1.400000*%
%ADD53FreePoly0,90.000000*%
%ADD54FreePoly1,90.000000*%
%ADD55RoundRect,0.250000X-0.400000X-0.625000X0.400000X-0.625000X0.400000X0.625000X-0.400000X0.625000X0*%
%ADD56R,1.600000X1.600000*%
%ADD57O,1.600000X1.600000*%
%ADD58R,2.000000X0.400000*%
%ADD59RoundRect,0.150000X0.150000X-0.825000X0.150000X0.825000X-0.150000X0.825000X-0.150000X-0.825000X0*%
%ADD60RoundRect,0.150000X0.150000X-0.587500X0.150000X0.587500X-0.150000X0.587500X-0.150000X-0.587500X0*%
%ADD61RoundRect,0.249200X0.450800X-0.600800X0.450800X0.600800X-0.450800X0.600800X-0.450800X-0.600800X0*%
%ADD62O,1.400000X1.700000*%
%ADD63C,1.500000*%
%ADD64RoundRect,0.125000X-0.125000X0.625000X-0.125000X-0.625000X0.125000X-0.625000X0.125000X0.625000X0*%
%ADD65RoundRect,0.125000X-0.625000X0.125000X-0.625000X-0.125000X0.625000X-0.125000X0.625000X0.125000X0*%
%ADD66RoundRect,0.150000X0.675000X0.150000X-0.675000X0.150000X-0.675000X-0.150000X0.675000X-0.150000X0*%
%ADD67FreePoly0,180.000000*%
%ADD68FreePoly1,180.000000*%
%ADD69C,6.000000*%
%ADD70R,1.560000X0.650000*%
%ADD71R,2.470000X1.880000*%
%ADD72R,1.880000X2.470000*%
%ADD73R,6.600000X1.800000*%
%ADD74R,8.000000X1.800000*%
%ADD75RoundRect,0.250000X-0.650000X0.412500X-0.650000X-0.412500X0.650000X-0.412500X0.650000X0.412500X0*%
%ADD76RoundRect,0.100000X0.100000X-0.712500X0.100000X0.712500X-0.100000X0.712500X-0.100000X-0.712500X0*%
%ADD77O,1.600000X1.700000*%
%ADD78FreePoly2,180.000000*%
%ADD79R,1.000000X1.500000*%
%ADD80FreePoly3,180.000000*%
%ADD81RoundRect,0.237500X0.237500X-0.287500X0.237500X0.287500X-0.237500X0.287500X-0.237500X-0.287500X0*%
%ADD82RoundRect,0.249999X-1.450001X0.450001X-1.450001X-0.450001X1.450001X-0.450001X1.450001X0.450001X0*%
%ADD83RoundRect,0.100000X-0.100000X0.712500X-0.100000X-0.712500X0.100000X-0.712500X0.100000X0.712500X0*%
%ADD84FreePoly2,0.000000*%
%ADD85FreePoly3,0.000000*%
%ADD86R,1.350000X1.350000*%
%ADD87O,1.350000X1.350000*%
G04 APERTURE END LIST*
D10*
X68199000Y-63674000D03*
X68199000Y-61849000D03*
D11*
X117324500Y-124079000D03*
X119149500Y-124079000D03*
X117324500Y-122555000D03*
X119149500Y-122555000D03*
D12*
X94820500Y-110683000D03*
X94820500Y-112583000D03*
X96695500Y-111633000D03*
X82755500Y-109921000D03*
X82755500Y-111821000D03*
X84630500Y-110871000D03*
D13*
X51563000Y-59275000D03*
X65023000Y-59275000D03*
D14*
X65023000Y-70450000D03*
D15*
X58293000Y-70450000D03*
D14*
X65023000Y-57950000D03*
D16*
X63458000Y-70450000D03*
D13*
X65023000Y-69125000D03*
D17*
X51563000Y-64200000D03*
D15*
X58293000Y-57950000D03*
D14*
X51563000Y-70450000D03*
D16*
X63458000Y-57950000D03*
X53128000Y-70450000D03*
D13*
X51563000Y-69125000D03*
D16*
X53128000Y-57950000D03*
D14*
X51563000Y-57950000D03*
D17*
X65023000Y-64200000D03*
D15*
X114400000Y-50843000D03*
D14*
X108150000Y-64303000D03*
D18*
X108150000Y-62738000D03*
D19*
X119325000Y-64303000D03*
D18*
X120650000Y-62738000D03*
X108150000Y-52408000D03*
D14*
X120650000Y-64303000D03*
D17*
X108150000Y-57573000D03*
D15*
X114400000Y-64303000D03*
D19*
X119325000Y-50843000D03*
D18*
X120650000Y-52408000D03*
D14*
X108150000Y-50843000D03*
D17*
X120650000Y-57573000D03*
D14*
X120650000Y-50843000D03*
D19*
X109475000Y-50843000D03*
X109475000Y-64303000D03*
D15*
X111825000Y-105124000D03*
D14*
X105575000Y-118584000D03*
D18*
X105575000Y-117019000D03*
D19*
X116750000Y-118584000D03*
D18*
X118075000Y-117019000D03*
X105575000Y-106689000D03*
D14*
X118075000Y-118584000D03*
D17*
X105575000Y-111854000D03*
D15*
X111825000Y-118584000D03*
D19*
X116750000Y-105124000D03*
D18*
X118075000Y-106689000D03*
D14*
X105575000Y-105124000D03*
D17*
X118075000Y-111854000D03*
D14*
X118075000Y-105124000D03*
D19*
X106900000Y-105124000D03*
X106900000Y-118584000D03*
D20*
X123190000Y-108204000D03*
D21*
X125730000Y-110744000D03*
X125730000Y-105664000D03*
X120650000Y-110744000D03*
X120650000Y-105664000D03*
D22*
X94615000Y-63754000D03*
X93345000Y-63754000D03*
D14*
X92075000Y-63754000D03*
D23*
X75016500Y-110315000D03*
X76591500Y-110315000D03*
X73533000Y-50927000D03*
X75108000Y-50927000D03*
D24*
X88138000Y-50927000D03*
X88138000Y-52502000D03*
D25*
X100838000Y-50927000D03*
X99263000Y-50927000D03*
D23*
X80086000Y-50927000D03*
X81661000Y-50927000D03*
X75011500Y-118110000D03*
X76586500Y-118110000D03*
X75011500Y-115555000D03*
X76586500Y-115555000D03*
X75011500Y-112830000D03*
X76586500Y-112830000D03*
D26*
X76962000Y-98478000D03*
X76962000Y-100203000D03*
D12*
X69626000Y-67122000D03*
X69626000Y-69022000D03*
X71501000Y-68072000D03*
X76708000Y-69723000D03*
X76708000Y-71623000D03*
X78583000Y-70673000D03*
D27*
X92954000Y-67705000D03*
X92954000Y-68355000D03*
X92954000Y-69005000D03*
X92954000Y-69655000D03*
X92954000Y-70305000D03*
X92954000Y-70955000D03*
X92954000Y-71605000D03*
X98679000Y-71605000D03*
X98679000Y-70955000D03*
X98679000Y-70305000D03*
X98679000Y-69655000D03*
X98679000Y-69005000D03*
X98679000Y-68355000D03*
X98679000Y-67705000D03*
D11*
X52812500Y-72660000D03*
X54637500Y-72660000D03*
D28*
X67818000Y-75184000D03*
D29*
X70358000Y-75184000D03*
D30*
X93944000Y-54804000D03*
X97069000Y-54804000D03*
D11*
X73050000Y-56253000D03*
X74875000Y-56253000D03*
D31*
X69185000Y-56261000D03*
D32*
X70485000Y-56261000D03*
D33*
X78613000Y-98378000D03*
X78613000Y-100203000D03*
X100584000Y-102997000D03*
X100584000Y-104822000D03*
D12*
X90425000Y-110249500D03*
X90425000Y-112149500D03*
X92300000Y-111199500D03*
D34*
X67842000Y-51983000D03*
X66017000Y-51983000D03*
D35*
X94869000Y-66040000D03*
X93144000Y-66040000D03*
D36*
X100584000Y-108458000D03*
X100584000Y-106733000D03*
D26*
X86425000Y-114424500D03*
X86425000Y-116149500D03*
D37*
X80601000Y-97155000D03*
X80601000Y-98425000D03*
X80601000Y-99695000D03*
X80601000Y-100965000D03*
X87801000Y-100965000D03*
X87801000Y-99695000D03*
X87801000Y-98425000D03*
X87801000Y-97155000D03*
D38*
X60047000Y-55626000D03*
X61772000Y-55626000D03*
X99824200Y-66141600D03*
X101549200Y-66141600D03*
D10*
X67371500Y-112825000D03*
X67371500Y-111000000D03*
D26*
X91216500Y-104955000D03*
X91216500Y-106680000D03*
D12*
X99162000Y-110257500D03*
X99162000Y-112157500D03*
X101037000Y-111207500D03*
D39*
X95692500Y-85758000D03*
X87942500Y-85758000D03*
D40*
X77425000Y-53483000D03*
X77425000Y-54753000D03*
X77425000Y-56023000D03*
X77425000Y-57293000D03*
X82375000Y-57293000D03*
X82375000Y-56023000D03*
X82375000Y-54753000D03*
X82375000Y-53483000D03*
D41*
X127508000Y-98074000D03*
D42*
X127508000Y-96774000D03*
D43*
X127508000Y-95474000D03*
D11*
X83675000Y-87460000D03*
X85500000Y-87460000D03*
D10*
X86627000Y-50905500D03*
X86627000Y-52730500D03*
D44*
X63500000Y-97200000D03*
D45*
X63500000Y-98500000D03*
D38*
X89080000Y-71448000D03*
X90805000Y-71448000D03*
D34*
X85500000Y-77724000D03*
X83675000Y-77724000D03*
D46*
X74538500Y-63415000D03*
X74538500Y-63915000D03*
X74538500Y-64415000D03*
X74538500Y-64915000D03*
X74538500Y-65415000D03*
X74538500Y-65915000D03*
X74538500Y-66415000D03*
X74538500Y-66915000D03*
D47*
X75226000Y-67602500D03*
X75726000Y-67602500D03*
X76226000Y-67602500D03*
X76726000Y-67602500D03*
X77226000Y-67602500D03*
X77726000Y-67602500D03*
X78226000Y-67602500D03*
X78726000Y-67602500D03*
D46*
X79413500Y-66915000D03*
X79413500Y-66415000D03*
X79413500Y-65915000D03*
X79413500Y-65415000D03*
X79413500Y-64915000D03*
X79413500Y-64415000D03*
X79413500Y-63915000D03*
X79413500Y-63415000D03*
D47*
X78726000Y-62727500D03*
X78226000Y-62727500D03*
X77726000Y-62727500D03*
X77226000Y-62727500D03*
X76726000Y-62727500D03*
X76226000Y-62727500D03*
X75726000Y-62727500D03*
X75226000Y-62727500D03*
D48*
X76976000Y-65165000D03*
D49*
X64871500Y-116125000D03*
X64871500Y-113000000D03*
D50*
X76454000Y-93188000D03*
X76454000Y-93838000D03*
X76454000Y-94488000D03*
X76454000Y-95138000D03*
X80679000Y-95138000D03*
X80679000Y-94488000D03*
X80679000Y-93838000D03*
X80679000Y-93188000D03*
D10*
X62342000Y-53808000D03*
X62342000Y-51983000D03*
D11*
X104038500Y-62451597D03*
X105863500Y-62451597D03*
D26*
X86875000Y-54282000D03*
X86875000Y-56007000D03*
D51*
X51816000Y-113538000D03*
D52*
X56896000Y-113538000D03*
D35*
X100354500Y-52705000D03*
X98629500Y-52705000D03*
D53*
X67871500Y-116300000D03*
D54*
X67871500Y-115000000D03*
D34*
X80934000Y-112442500D03*
X79109000Y-112442500D03*
D39*
X95696000Y-81280000D03*
X87946000Y-81280000D03*
D11*
X95150300Y-109169200D03*
X96975300Y-109169200D03*
D55*
X88842000Y-118149500D03*
X91942000Y-118149500D03*
D10*
X72461000Y-59817000D03*
X72461000Y-57992000D03*
D56*
X68000000Y-87500000D03*
D57*
X60380000Y-87500000D03*
D34*
X91530500Y-56129403D03*
X89705500Y-56129403D03*
D38*
X63646500Y-111000000D03*
X65371500Y-111000000D03*
D58*
X88452000Y-114174500D03*
X88452000Y-114814500D03*
X88452000Y-115474500D03*
X88452000Y-116114500D03*
X91872000Y-116114500D03*
X91872000Y-115474500D03*
X91872000Y-114814500D03*
X91872000Y-114174500D03*
D10*
X74041000Y-107315000D03*
X74041000Y-105490000D03*
D33*
X66675000Y-63650500D03*
X66675000Y-61825500D03*
D12*
X80675000Y-106492000D03*
X80675000Y-108392000D03*
X82550000Y-107442000D03*
D11*
X61400000Y-90460000D03*
X63225000Y-90460000D03*
D34*
X84963000Y-50927000D03*
X83138000Y-50927000D03*
D38*
X63399500Y-101092000D03*
X65124500Y-101092000D03*
D36*
X90932000Y-68146000D03*
X90932000Y-66421000D03*
X102108000Y-108458000D03*
X102108000Y-106733000D03*
D40*
X53275000Y-76660000D03*
X53275000Y-77930000D03*
X53275000Y-79200000D03*
X53275000Y-80470000D03*
X58225000Y-80470000D03*
X58225000Y-79200000D03*
X58225000Y-77930000D03*
X58225000Y-76660000D03*
D14*
X98156000Y-82931000D03*
D22*
X99426000Y-82931000D03*
D59*
X64601500Y-108450000D03*
X65871500Y-108450000D03*
X67141500Y-108450000D03*
X68411500Y-108450000D03*
X68411500Y-103500000D03*
X67141500Y-103500000D03*
X65871500Y-103500000D03*
X64601500Y-103500000D03*
D36*
X82677000Y-94996000D03*
X82677000Y-93271000D03*
D35*
X70718000Y-65151000D03*
X72443000Y-65151000D03*
D12*
X76073000Y-58933000D03*
X76073000Y-60833000D03*
X77948000Y-59883000D03*
X100106000Y-62169000D03*
X100106000Y-64069000D03*
X101981000Y-63119000D03*
D35*
X88138000Y-109982000D03*
X86413000Y-109982000D03*
D11*
X61400000Y-92460000D03*
X63225000Y-92460000D03*
D56*
X94742000Y-76782000D03*
D57*
X102362000Y-76782000D03*
D60*
X70471500Y-110000000D03*
X72371500Y-110000000D03*
X71421500Y-108125000D03*
D11*
X52675000Y-82770000D03*
X54500000Y-82770000D03*
D27*
X79775000Y-79360000D03*
X79775000Y-80010000D03*
X79775000Y-80660000D03*
X79775000Y-81310000D03*
X79775000Y-81960000D03*
X79775000Y-82610000D03*
X79775000Y-83260000D03*
X85500000Y-83260000D03*
X85500000Y-82610000D03*
X85500000Y-81960000D03*
X85500000Y-81310000D03*
X85500000Y-80660000D03*
X85500000Y-80010000D03*
X85500000Y-79360000D03*
D61*
X114173500Y-116332000D03*
D62*
X114173500Y-111252000D03*
D26*
X74875000Y-52528000D03*
X74875000Y-54253000D03*
D36*
X96393000Y-90513000D03*
X96393000Y-88788000D03*
X89662000Y-97663000D03*
X89662000Y-95938000D03*
D34*
X80932500Y-119104500D03*
X79107500Y-119104500D03*
D56*
X64845000Y-74160000D03*
D57*
X57225000Y-74160000D03*
D11*
X104217000Y-52229000D03*
X106042000Y-52229000D03*
X89705500Y-54629403D03*
X91530500Y-54629403D03*
D36*
X84875000Y-59478000D03*
X84875000Y-57753000D03*
D11*
X79175000Y-87440000D03*
X81000000Y-87440000D03*
D40*
X106172000Y-56681597D03*
X106172000Y-57951597D03*
X106172000Y-59221597D03*
X106172000Y-60491597D03*
X101222000Y-60491597D03*
X101222000Y-59221597D03*
X101222000Y-57951597D03*
X101222000Y-56681597D03*
D33*
X78636500Y-101894000D03*
X78636500Y-103719000D03*
D30*
X64008000Y-56007000D03*
X67133000Y-56007000D03*
D10*
X77216000Y-107362000D03*
X77216000Y-105537000D03*
D38*
X93844000Y-52705000D03*
X95569000Y-52705000D03*
D33*
X63435500Y-117856000D03*
X63435500Y-119681000D03*
X67818000Y-67183000D03*
X67818000Y-69008000D03*
D34*
X85500000Y-85490000D03*
X83675000Y-85490000D03*
D11*
X97213500Y-59451597D03*
X99038500Y-59451597D03*
D10*
X96685500Y-62824597D03*
X96685500Y-60999597D03*
D35*
X92202000Y-78359000D03*
X90477000Y-78359000D03*
D11*
X85598000Y-69797000D03*
X87423000Y-69797000D03*
D10*
X94615000Y-59516000D03*
X94615000Y-61341000D03*
D63*
X77597000Y-77470000D03*
D64*
X98812000Y-92609000D03*
X98012000Y-92609000D03*
X97212000Y-92609000D03*
X96412000Y-92609000D03*
X95612000Y-92609000D03*
X94812000Y-92609000D03*
X94012000Y-92609000D03*
X93212000Y-92609000D03*
D65*
X91837000Y-93984000D03*
X91837000Y-94784000D03*
X91837000Y-95584000D03*
X91837000Y-96384000D03*
X91837000Y-97184000D03*
X91837000Y-97984000D03*
X91837000Y-98784000D03*
X91837000Y-99584000D03*
D64*
X93212000Y-100959000D03*
X94012000Y-100959000D03*
X94812000Y-100959000D03*
X95612000Y-100959000D03*
X96412000Y-100959000D03*
X97212000Y-100959000D03*
X98012000Y-100959000D03*
X98812000Y-100959000D03*
D65*
X100187000Y-99584000D03*
X100187000Y-98784000D03*
X100187000Y-97984000D03*
X100187000Y-97184000D03*
X100187000Y-96384000D03*
X100187000Y-95584000D03*
X100187000Y-94784000D03*
X100187000Y-93984000D03*
D10*
X89662000Y-101219000D03*
X89662000Y-99394000D03*
D66*
X87673000Y-65024000D03*
X87673000Y-63754000D03*
X87673000Y-62484000D03*
X87673000Y-61214000D03*
X82423000Y-61214000D03*
X82423000Y-62484000D03*
X82423000Y-63754000D03*
X82423000Y-65024000D03*
D35*
X70792000Y-63373000D03*
X72517000Y-63373000D03*
D10*
X59342000Y-53808000D03*
X59342000Y-51983000D03*
D67*
X94811000Y-57399000D03*
D68*
X93511000Y-57399000D03*
D34*
X77500000Y-79450000D03*
X75675000Y-79450000D03*
D33*
X98171000Y-85551000D03*
X98171000Y-87376000D03*
D11*
X75675000Y-81460000D03*
X77500000Y-81460000D03*
D55*
X97079000Y-118157500D03*
X100179000Y-118157500D03*
D69*
X54500000Y-123650000D03*
D10*
X60133500Y-112649000D03*
X60133500Y-110824000D03*
D40*
X93472000Y-103759000D03*
X93472000Y-105029000D03*
X93472000Y-106299000D03*
X93472000Y-107569000D03*
X98422000Y-107569000D03*
X98422000Y-106299000D03*
X98422000Y-105029000D03*
X98422000Y-103759000D03*
D36*
X92583000Y-75131000D03*
X92583000Y-73406000D03*
D70*
X54657000Y-60010000D03*
X54657000Y-60960000D03*
X54657000Y-61910000D03*
X57357000Y-61910000D03*
X57357000Y-60960000D03*
X57357000Y-60010000D03*
D71*
X123852500Y-70726000D03*
X123852500Y-75176000D03*
X123852500Y-79626000D03*
X123852500Y-84076000D03*
X123852500Y-88526000D03*
X123852500Y-92976000D03*
X123852500Y-97426000D03*
D72*
X121927500Y-101201000D03*
X117327500Y-101201000D03*
X112727500Y-101201000D03*
X108127500Y-101201000D03*
D71*
X106202500Y-97426000D03*
X106202500Y-92976000D03*
X106202500Y-88526000D03*
X106202500Y-84076000D03*
X106202500Y-79626000D03*
X106202500Y-75176000D03*
X106202500Y-70726000D03*
D73*
X121227500Y-66951000D03*
D74*
X109527500Y-66951000D03*
D58*
X96759000Y-114072500D03*
X96759000Y-114712500D03*
X96759000Y-115372500D03*
X96759000Y-116012500D03*
X100179000Y-116012500D03*
X100179000Y-115372500D03*
X100179000Y-114712500D03*
X100179000Y-114072500D03*
D11*
X70546500Y-112000000D03*
X72371500Y-112000000D03*
D36*
X75636500Y-103619000D03*
X75636500Y-101894000D03*
D34*
X78486000Y-50927000D03*
X76661000Y-50927000D03*
X67371500Y-118500000D03*
X65546500Y-118500000D03*
D10*
X89408000Y-74900500D03*
X89408000Y-73075500D03*
D33*
X86875000Y-57703000D03*
X86875000Y-59528000D03*
D11*
X52675000Y-84328000D03*
X54500000Y-84328000D03*
D34*
X83947000Y-69797000D03*
X82122000Y-69797000D03*
D36*
X94532000Y-90513000D03*
X94532000Y-88788000D03*
D34*
X72371500Y-114000000D03*
X70546500Y-114000000D03*
D33*
X73376000Y-69789000D03*
X73376000Y-71614000D03*
D10*
X99695000Y-87376000D03*
X99695000Y-85551000D03*
D33*
X74900000Y-69789000D03*
X74900000Y-71614000D03*
D36*
X60000000Y-108250000D03*
X60000000Y-106525000D03*
D11*
X75645000Y-96774000D03*
X77470000Y-96774000D03*
D10*
X61935500Y-119681000D03*
X61935500Y-117856000D03*
D75*
X91313000Y-57912000D03*
X91313000Y-61037000D03*
D38*
X107951100Y-110134400D03*
X109676100Y-110134400D03*
D76*
X61509000Y-65866500D03*
X62159000Y-65866500D03*
X62809000Y-65866500D03*
X63459000Y-65866500D03*
X63459000Y-61641500D03*
X62809000Y-61641500D03*
X62159000Y-61641500D03*
X61509000Y-61641500D03*
D38*
X83111000Y-75438000D03*
X84836000Y-75438000D03*
D11*
X100537000Y-67765000D03*
X102362000Y-67765000D03*
D56*
X86000000Y-89960000D03*
D57*
X78380000Y-89960000D03*
D33*
X98209500Y-60952597D03*
X98209500Y-62777597D03*
D35*
X109220500Y-108458000D03*
X107495500Y-108458000D03*
D36*
X61633500Y-112549000D03*
X61633500Y-110824000D03*
D14*
X83002000Y-116649500D03*
D22*
X84272000Y-116649500D03*
D11*
X100636700Y-54229000D03*
X102461700Y-54229000D03*
D28*
X53102000Y-108238500D03*
D29*
X53102000Y-105698500D03*
X53102000Y-98078500D03*
D77*
X53102000Y-95538500D03*
D29*
X53102000Y-92998500D03*
D34*
X102362000Y-69259000D03*
X100537000Y-69259000D03*
D50*
X111572000Y-60376000D03*
X111572000Y-61026000D03*
X111572000Y-61676000D03*
X111572000Y-62326000D03*
X115797000Y-62326000D03*
X115797000Y-61676000D03*
X115797000Y-61026000D03*
X115797000Y-60376000D03*
D38*
X61648000Y-59690000D03*
X63373000Y-59690000D03*
D34*
X75692000Y-73279000D03*
X73867000Y-73279000D03*
D11*
X89408000Y-108331000D03*
X91233000Y-108331000D03*
D35*
X69087500Y-99000000D03*
X67362500Y-99000000D03*
D34*
X81500000Y-77724000D03*
X79675000Y-77724000D03*
D26*
X99038500Y-55726597D03*
X99038500Y-57451597D03*
D11*
X82163000Y-68209000D03*
X83988000Y-68209000D03*
D38*
X89805500Y-53129403D03*
X91530500Y-53129403D03*
D30*
X69112000Y-118491000D03*
X72237000Y-118491000D03*
D38*
X89334000Y-102997000D03*
X91059000Y-102997000D03*
D36*
X127000000Y-101854000D03*
X127000000Y-100129000D03*
D78*
X69469000Y-59690000D03*
D79*
X68169000Y-59690000D03*
D80*
X66869000Y-59690000D03*
D56*
X73225000Y-78660000D03*
D57*
X65605000Y-78660000D03*
D70*
X112823500Y-106873000D03*
X112823500Y-107823000D03*
X112823500Y-108773000D03*
X115523500Y-108773000D03*
X115523500Y-107823000D03*
X115523500Y-106873000D03*
D38*
X77269000Y-73279000D03*
X78994000Y-73279000D03*
D81*
X62000000Y-106000000D03*
X62000000Y-104250000D03*
D33*
X74073000Y-57992000D03*
X74073000Y-59817000D03*
D30*
X69750000Y-53753000D03*
X72875000Y-53753000D03*
D82*
X60250000Y-98200000D03*
X60250000Y-102300000D03*
D14*
X83002000Y-119149500D03*
D22*
X84272000Y-119149500D03*
D40*
X52550000Y-85918000D03*
X52550000Y-87188000D03*
X52550000Y-88458000D03*
X52550000Y-89728000D03*
X57500000Y-89728000D03*
X57500000Y-88458000D03*
X57500000Y-87188000D03*
X57500000Y-85918000D03*
D63*
X59436000Y-91567000D03*
D34*
X80932500Y-114024500D03*
X79107500Y-114024500D03*
D83*
X60284000Y-117267500D03*
X59634000Y-117267500D03*
X58984000Y-117267500D03*
X58334000Y-117267500D03*
X58334000Y-121492500D03*
X58984000Y-121492500D03*
X59634000Y-121492500D03*
X60284000Y-121492500D03*
D33*
X80488000Y-69869000D03*
X80488000Y-71694000D03*
D26*
X117702000Y-60459000D03*
X117702000Y-62184000D03*
D38*
X83111000Y-66675000D03*
X84836000Y-66675000D03*
D33*
X90932000Y-73052000D03*
X90932000Y-74877000D03*
D11*
X61400000Y-79160000D03*
X63225000Y-79160000D03*
D61*
X111860000Y-57866000D03*
D62*
X111860000Y-52786000D03*
D38*
X69650000Y-51253000D03*
X71375000Y-51253000D03*
D14*
X83002000Y-114149500D03*
D22*
X84272000Y-114149500D03*
D11*
X87456000Y-68146000D03*
X89281000Y-68146000D03*
D33*
X78737500Y-105537000D03*
X78737500Y-107362000D03*
D69*
X54500000Y-53700000D03*
D11*
X61400000Y-77160000D03*
X63225000Y-77160000D03*
D26*
X87881500Y-73152000D03*
X87881500Y-74877000D03*
D40*
X61279000Y-81026000D03*
X61279000Y-82296000D03*
X61279000Y-83566000D03*
X61279000Y-84836000D03*
X66229000Y-84836000D03*
X66229000Y-83566000D03*
X66229000Y-82296000D03*
X66229000Y-81026000D03*
D30*
X80503500Y-104394000D03*
X83628500Y-104394000D03*
D33*
X67818000Y-70565000D03*
X67818000Y-72390000D03*
X84875000Y-53928000D03*
X84875000Y-55753000D03*
D10*
X75692000Y-105490000D03*
X75692000Y-107315000D03*
D14*
X127889000Y-71247000D03*
D22*
X127889000Y-72517000D03*
X127889000Y-73787000D03*
X127889000Y-75057000D03*
X127889000Y-76327000D03*
X127889000Y-77597000D03*
X127889000Y-78867000D03*
X127889000Y-80137000D03*
X127889000Y-81407000D03*
X127889000Y-82677000D03*
X127889000Y-83947000D03*
X127889000Y-85217000D03*
D70*
X115971000Y-53360000D03*
X115971000Y-54310000D03*
X115971000Y-55260000D03*
X118671000Y-55260000D03*
X118671000Y-54310000D03*
X118671000Y-53360000D03*
D34*
X81000000Y-85460000D03*
X79175000Y-85460000D03*
D51*
X53721000Y-66167000D03*
D52*
X58801000Y-66167000D03*
D11*
X69175000Y-101000000D03*
X71000000Y-101000000D03*
D38*
X89842000Y-88900000D03*
X91567000Y-88900000D03*
D31*
X85883500Y-107670000D03*
D32*
X87183500Y-107670000D03*
D34*
X87757000Y-102997000D03*
X85932000Y-102997000D03*
D33*
X63842000Y-51983000D03*
X63842000Y-53808000D03*
D35*
X105992000Y-54229000D03*
X104267000Y-54229000D03*
D26*
X60000000Y-96315700D03*
X60000000Y-94590700D03*
D11*
X100537000Y-70813000D03*
X102362000Y-70813000D03*
D36*
X62371500Y-116225000D03*
X62371500Y-114500000D03*
D11*
X95838000Y-50927000D03*
X97663000Y-50927000D03*
X52900000Y-74660000D03*
X54725000Y-74660000D03*
D69*
X124500000Y-123650000D03*
D11*
X107522500Y-106807000D03*
X109347500Y-106807000D03*
D36*
X94679000Y-116078000D03*
X94679000Y-114353000D03*
D35*
X88011000Y-95250000D03*
X86286000Y-95250000D03*
D38*
X77904000Y-74930000D03*
X79629000Y-74930000D03*
D27*
X70275000Y-83260000D03*
X70275000Y-83910000D03*
X70275000Y-84560000D03*
X70275000Y-85210000D03*
X70275000Y-85860000D03*
X70275000Y-86510000D03*
X70275000Y-87160000D03*
X70275000Y-87810000D03*
X70275000Y-88460000D03*
X70275000Y-89110000D03*
X76000000Y-89110000D03*
X76000000Y-88460000D03*
X76000000Y-87810000D03*
X76000000Y-87160000D03*
X76000000Y-86510000D03*
X76000000Y-85860000D03*
X76000000Y-85210000D03*
X76000000Y-84560000D03*
X76000000Y-83910000D03*
X76000000Y-83260000D03*
D10*
X77136500Y-103719000D03*
X77136500Y-101894000D03*
D40*
X66050000Y-91190000D03*
X66050000Y-92460000D03*
X66050000Y-93730000D03*
X66050000Y-95000000D03*
X71000000Y-95000000D03*
X71000000Y-93730000D03*
X71000000Y-92460000D03*
X71000000Y-91190000D03*
D84*
X98649000Y-89535000D03*
D79*
X99949000Y-89535000D03*
D85*
X101249000Y-89535000D03*
D11*
X89705500Y-51629403D03*
X91530500Y-51629403D03*
D34*
X80932500Y-116649500D03*
X79107500Y-116649500D03*
D35*
X70792000Y-61849000D03*
X72517000Y-61849000D03*
D63*
X73660000Y-81280000D03*
D70*
X52879000Y-116906000D03*
X52879000Y-117856000D03*
X52879000Y-118806000D03*
X55579000Y-118806000D03*
X55579000Y-117856000D03*
X55579000Y-116906000D03*
D30*
X86091500Y-105029000D03*
X89216500Y-105029000D03*
D69*
X124500000Y-53700000D03*
D38*
X58854000Y-123444000D03*
X60579000Y-123444000D03*
D11*
X79875000Y-59253000D03*
X81700000Y-59253000D03*
D56*
X94742000Y-74115000D03*
D57*
X102362000Y-74115000D03*
D53*
X127508000Y-90043000D03*
D54*
X127508000Y-88743000D03*
D76*
X107787800Y-116666500D03*
X108437800Y-116666500D03*
X109087800Y-116666500D03*
X109737800Y-116666500D03*
X109737800Y-112441500D03*
X109087800Y-112441500D03*
X108437800Y-112441500D03*
X107787800Y-112441500D03*
D34*
X90805000Y-69797000D03*
X88980000Y-69797000D03*
D35*
X84836000Y-72928000D03*
X83111000Y-72928000D03*
D86*
X65250000Y-121700000D03*
D87*
X65250000Y-123700000D03*
X67250000Y-121700000D03*
X67250000Y-123700000D03*
X69250000Y-121700000D03*
X69250000Y-123700000D03*
X71250000Y-121700000D03*
X71250000Y-123700000D03*
X73250000Y-121700000D03*
X73250000Y-123700000D03*
X75250000Y-121700000D03*
X75250000Y-123700000D03*
X77250000Y-121700000D03*
X77250000Y-123700000D03*
X79250000Y-121700000D03*
X79250000Y-123700000D03*
X81250000Y-121700000D03*
X81250000Y-123700000D03*
X83250000Y-121700000D03*
X83250000Y-123700000D03*
X85250000Y-121700000D03*
X85250000Y-123700000D03*
X87250000Y-121700000D03*
X87250000Y-123700000D03*
X89250000Y-121700000D03*
X89250000Y-123700000D03*
X91250000Y-121700000D03*
X91250000Y-123700000D03*
X93250000Y-121700000D03*
X93250000Y-123700000D03*
X95250000Y-121700000D03*
X95250000Y-123700000D03*
X97250000Y-121700000D03*
X97250000Y-123700000D03*
X99250000Y-121700000D03*
X99250000Y-123700000D03*
X101250000Y-121700000D03*
X101250000Y-123700000D03*
X103250000Y-121700000D03*
X103250000Y-123700000D03*
X105250000Y-121700000D03*
X105250000Y-123700000D03*
X107250000Y-121700000D03*
X107250000Y-123700000D03*
X109250000Y-121700000D03*
X109250000Y-123700000D03*
X111250000Y-121700000D03*
X111250000Y-123700000D03*
X113250000Y-121700000D03*
X113250000Y-123700000D03*
M02*
