G04 #@! TF.GenerationSoftware,KiCad,Pcbnew,7.0.5*
G04 #@! TF.CreationDate,2023-07-24T06:03:43-06:00*
G04 #@! TF.ProjectId,BIRDS-X-PCB,42495244-532d-4582-9d50-43422e6b6963,rev?*
G04 #@! TF.SameCoordinates,Original*
G04 #@! TF.FileFunction,Soldermask,Bot*
G04 #@! TF.FilePolarity,Negative*
%FSLAX46Y46*%
G04 Gerber Fmt 4.6, Leading zero omitted, Abs format (unit mm)*
G04 Created by KiCad (PCBNEW 7.0.5) date 2023-07-24 06:03:43*
%MOMM*%
%LPD*%
G01*
G04 APERTURE LIST*
G04 Aperture macros list*
%AMRoundRect*
0 Rectangle with rounded corners*
0 $1 Rounding radius*
0 $2 $3 $4 $5 $6 $7 $8 $9 X,Y pos of 4 corners*
0 Add a 4 corners polygon primitive as box body*
4,1,4,$2,$3,$4,$5,$6,$7,$8,$9,$2,$3,0*
0 Add four circle primitives for the rounded corners*
1,1,$1+$1,$2,$3*
1,1,$1+$1,$4,$5*
1,1,$1+$1,$6,$7*
1,1,$1+$1,$8,$9*
0 Add four rect primitives between the rounded corners*
20,1,$1+$1,$2,$3,$4,$5,0*
20,1,$1+$1,$4,$5,$6,$7,0*
20,1,$1+$1,$6,$7,$8,$9,0*
20,1,$1+$1,$8,$9,$2,$3,0*%
G04 Aperture macros list end*
%ADD10RoundRect,0.200100X0.949900X0.949900X-0.949900X0.949900X-0.949900X-0.949900X0.949900X-0.949900X0*%
%ADD11C,2.500000*%
%ADD12O,1.000000X1.000000*%
%ADD13R,1.000000X1.000000*%
%ADD14R,1.700000X1.700000*%
%ADD15O,1.700000X1.700000*%
%ADD16RoundRect,0.249200X-0.600800X-0.450800X0.600800X-0.450800X0.600800X0.450800X-0.600800X0.450800X0*%
%ADD17O,1.700000X1.400000*%
%ADD18R,1.600000X1.600000*%
%ADD19O,1.600000X1.600000*%
%ADD20RoundRect,0.249200X0.450800X-0.600800X0.450800X0.600800X-0.450800X0.600800X-0.450800X-0.600800X0*%
%ADD21O,1.400000X1.700000*%
%ADD22C,6.000000*%
%ADD23O,1.600000X1.700000*%
%ADD24R,1.350000X1.350000*%
%ADD25O,1.350000X1.350000*%
G04 APERTURE END LIST*
D10*
X123190000Y-108204000D03*
D11*
X125730000Y-110744000D03*
X125730000Y-105664000D03*
X120650000Y-110744000D03*
X120650000Y-105664000D03*
D12*
X94615000Y-63754000D03*
X93345000Y-63754000D03*
D13*
X92075000Y-63754000D03*
D14*
X67818000Y-75184000D03*
D15*
X70358000Y-75184000D03*
D16*
X51816000Y-113538000D03*
D17*
X56896000Y-113538000D03*
D18*
X68000000Y-87500000D03*
D19*
X60380000Y-87500000D03*
D13*
X98156000Y-82931000D03*
D12*
X99426000Y-82931000D03*
D18*
X94742000Y-76782000D03*
D19*
X102362000Y-76782000D03*
D20*
X114173500Y-116332000D03*
D21*
X114173500Y-111252000D03*
D18*
X64845000Y-74160000D03*
D19*
X57225000Y-74160000D03*
D22*
X54500000Y-123650000D03*
D18*
X86000000Y-89960000D03*
D19*
X78380000Y-89960000D03*
D13*
X83002000Y-116649500D03*
D12*
X84272000Y-116649500D03*
D14*
X53102000Y-108238500D03*
D15*
X53102000Y-105698500D03*
X53102000Y-98078500D03*
D23*
X53102000Y-95538500D03*
D15*
X53102000Y-92998500D03*
D18*
X73225000Y-78660000D03*
D19*
X65605000Y-78660000D03*
D13*
X83002000Y-119149500D03*
D12*
X84272000Y-119149500D03*
D20*
X111860000Y-57866000D03*
D21*
X111860000Y-52786000D03*
D13*
X83002000Y-114149500D03*
D12*
X84272000Y-114149500D03*
D22*
X54500000Y-53700000D03*
D13*
X127889000Y-71247000D03*
D12*
X127889000Y-72517000D03*
X127889000Y-73787000D03*
X127889000Y-75057000D03*
X127889000Y-76327000D03*
X127889000Y-77597000D03*
X127889000Y-78867000D03*
X127889000Y-80137000D03*
X127889000Y-81407000D03*
X127889000Y-82677000D03*
X127889000Y-83947000D03*
X127889000Y-85217000D03*
D16*
X53721000Y-66167000D03*
D17*
X58801000Y-66167000D03*
D22*
X124500000Y-123650000D03*
X124500000Y-53700000D03*
D18*
X94742000Y-74115000D03*
D19*
X102362000Y-74115000D03*
D24*
X65250000Y-121700000D03*
D25*
X65250000Y-123700000D03*
X67250000Y-121700000D03*
X67250000Y-123700000D03*
X69250000Y-121700000D03*
X69250000Y-123700000D03*
X71250000Y-121700000D03*
X71250000Y-123700000D03*
X73250000Y-121700000D03*
X73250000Y-123700000D03*
X75250000Y-121700000D03*
X75250000Y-123700000D03*
X77250000Y-121700000D03*
X77250000Y-123700000D03*
X79250000Y-121700000D03*
X79250000Y-123700000D03*
X81250000Y-121700000D03*
X81250000Y-123700000D03*
X83250000Y-121700000D03*
X83250000Y-123700000D03*
X85250000Y-121700000D03*
X85250000Y-123700000D03*
X87250000Y-121700000D03*
X87250000Y-123700000D03*
X89250000Y-121700000D03*
X89250000Y-123700000D03*
X91250000Y-121700000D03*
X91250000Y-123700000D03*
X93250000Y-121700000D03*
X93250000Y-123700000D03*
X95250000Y-121700000D03*
X95250000Y-123700000D03*
X97250000Y-121700000D03*
X97250000Y-123700000D03*
X99250000Y-121700000D03*
X99250000Y-123700000D03*
X101250000Y-121700000D03*
X101250000Y-123700000D03*
X103250000Y-121700000D03*
X103250000Y-123700000D03*
X105250000Y-121700000D03*
X105250000Y-123700000D03*
X107250000Y-121700000D03*
X107250000Y-123700000D03*
X109250000Y-121700000D03*
X109250000Y-123700000D03*
X111250000Y-121700000D03*
X111250000Y-123700000D03*
X113250000Y-121700000D03*
X113250000Y-123700000D03*
M02*
