G04 #@! TF.GenerationSoftware,KiCad,Pcbnew,7.0.5*
G04 #@! TF.CreationDate,2023-07-24T06:03:43-06:00*
G04 #@! TF.ProjectId,BIRDS-X-PCB,42495244-532d-4582-9d50-43422e6b6963,rev?*
G04 #@! TF.SameCoordinates,Original*
G04 #@! TF.FileFunction,Paste,Top*
G04 #@! TF.FilePolarity,Positive*
%FSLAX46Y46*%
G04 Gerber Fmt 4.6, Leading zero omitted, Abs format (unit mm)*
G04 Created by KiCad (PCBNEW 7.0.5) date 2023-07-24 06:03:43*
%MOMM*%
%LPD*%
G01*
G04 APERTURE LIST*
G04 Aperture macros list*
%AMRoundRect*
0 Rectangle with rounded corners*
0 $1 Rounding radius*
0 $2 $3 $4 $5 $6 $7 $8 $9 X,Y pos of 4 corners*
0 Add a 4 corners polygon primitive as box body*
4,1,4,$2,$3,$4,$5,$6,$7,$8,$9,$2,$3,0*
0 Add four circle primitives for the rounded corners*
1,1,$1+$1,$2,$3*
1,1,$1+$1,$4,$5*
1,1,$1+$1,$6,$7*
1,1,$1+$1,$8,$9*
0 Add four rect primitives between the rounded corners*
20,1,$1+$1,$2,$3,$4,$5,0*
20,1,$1+$1,$4,$5,$6,$7,0*
20,1,$1+$1,$6,$7,$8,$9,0*
20,1,$1+$1,$8,$9,$2,$3,0*%
G04 Aperture macros list end*
%ADD10RoundRect,0.237500X0.237500X-0.250000X0.237500X0.250000X-0.237500X0.250000X-0.237500X-0.250000X0*%
%ADD11RoundRect,0.237500X-0.250000X-0.237500X0.250000X-0.237500X0.250000X0.237500X-0.250000X0.237500X0*%
%ADD12RoundRect,0.150000X-0.587500X-0.150000X0.587500X-0.150000X0.587500X0.150000X-0.587500X0.150000X0*%
%ADD13R,1.000000X1.650000*%
%ADD14R,1.000000X1.000000*%
%ADD15R,3.800000X1.000000*%
%ADD16R,2.130000X1.000000*%
%ADD17R,1.000000X3.800000*%
%ADD18R,1.000000X2.130000*%
%ADD19R,1.650000X1.000000*%
%ADD20RoundRect,0.218750X-0.218750X-0.256250X0.218750X-0.256250X0.218750X0.256250X-0.218750X0.256250X0*%
%ADD21RoundRect,0.218750X0.256250X-0.218750X0.256250X0.218750X-0.256250X0.218750X-0.256250X-0.218750X0*%
%ADD22RoundRect,0.218750X0.218750X0.256250X-0.218750X0.256250X-0.218750X-0.256250X0.218750X-0.256250X0*%
%ADD23RoundRect,0.237500X-0.237500X0.300000X-0.237500X-0.300000X0.237500X-0.300000X0.237500X0.300000X0*%
%ADD24RoundRect,0.100000X-0.637500X-0.100000X0.637500X-0.100000X0.637500X0.100000X-0.637500X0.100000X0*%
%ADD25RoundRect,0.250000X-0.412500X-0.650000X0.412500X-0.650000X0.412500X0.650000X-0.412500X0.650000X0*%
%ADD26RoundRect,0.237500X-0.237500X0.250000X-0.237500X-0.250000X0.237500X-0.250000X0.237500X0.250000X0*%
%ADD27RoundRect,0.237500X0.250000X0.237500X-0.250000X0.237500X-0.250000X-0.237500X0.250000X-0.237500X0*%
%ADD28RoundRect,0.237500X0.300000X0.237500X-0.300000X0.237500X-0.300000X-0.237500X0.300000X-0.237500X0*%
%ADD29RoundRect,0.237500X0.237500X-0.300000X0.237500X0.300000X-0.237500X0.300000X-0.237500X-0.300000X0*%
%ADD30RoundRect,0.150000X-0.650000X-0.150000X0.650000X-0.150000X0.650000X0.150000X-0.650000X0.150000X0*%
%ADD31RoundRect,0.237500X-0.300000X-0.237500X0.300000X-0.237500X0.300000X0.237500X-0.300000X0.237500X0*%
%ADD32R,1.250000X1.000000*%
%ADD33RoundRect,0.150000X-0.825000X-0.150000X0.825000X-0.150000X0.825000X0.150000X-0.825000X0.150000X0*%
%ADD34RoundRect,0.250000X-0.455000X-0.455000X0.455000X-0.455000X0.455000X0.455000X-0.455000X0.455000X0*%
%ADD35RoundRect,0.062500X-0.375000X-0.062500X0.375000X-0.062500X0.375000X0.062500X-0.375000X0.062500X0*%
%ADD36RoundRect,0.062500X-0.062500X-0.375000X0.062500X-0.375000X0.062500X0.375000X-0.062500X0.375000X0*%
%ADD37RoundRect,0.250000X0.650000X-0.412500X0.650000X0.412500X-0.650000X0.412500X-0.650000X-0.412500X0*%
%ADD38RoundRect,0.100000X-0.712500X-0.100000X0.712500X-0.100000X0.712500X0.100000X-0.712500X0.100000X0*%
%ADD39RoundRect,0.250000X-0.400000X-0.625000X0.400000X-0.625000X0.400000X0.625000X-0.400000X0.625000X0*%
%ADD40R,2.000000X0.400000*%
%ADD41RoundRect,0.150000X0.150000X-0.825000X0.150000X0.825000X-0.150000X0.825000X-0.150000X-0.825000X0*%
%ADD42RoundRect,0.150000X0.150000X-0.587500X0.150000X0.587500X-0.150000X0.587500X-0.150000X-0.587500X0*%
%ADD43RoundRect,0.125000X-0.125000X0.625000X-0.125000X-0.625000X0.125000X-0.625000X0.125000X0.625000X0*%
%ADD44RoundRect,0.125000X-0.625000X0.125000X-0.625000X-0.125000X0.625000X-0.125000X0.625000X0.125000X0*%
%ADD45RoundRect,0.150000X0.675000X0.150000X-0.675000X0.150000X-0.675000X-0.150000X0.675000X-0.150000X0*%
%ADD46R,1.560000X0.650000*%
%ADD47R,2.470000X1.880000*%
%ADD48R,1.880000X2.470000*%
%ADD49R,6.600000X1.800000*%
%ADD50R,8.000000X1.800000*%
%ADD51RoundRect,0.250000X-0.650000X0.412500X-0.650000X-0.412500X0.650000X-0.412500X0.650000X0.412500X0*%
%ADD52RoundRect,0.100000X0.100000X-0.712500X0.100000X0.712500X-0.100000X0.712500X-0.100000X-0.712500X0*%
%ADD53RoundRect,0.237500X0.237500X-0.287500X0.237500X0.287500X-0.237500X0.287500X-0.237500X-0.287500X0*%
%ADD54RoundRect,0.249999X-1.450001X0.450001X-1.450001X-0.450001X1.450001X-0.450001X1.450001X0.450001X0*%
%ADD55RoundRect,0.100000X-0.100000X0.712500X-0.100000X-0.712500X0.100000X-0.712500X0.100000X0.712500X0*%
G04 APERTURE END LIST*
D10*
X68199000Y-63674000D03*
X68199000Y-61849000D03*
D11*
X117324500Y-124079000D03*
X119149500Y-124079000D03*
X117324500Y-122555000D03*
X119149500Y-122555000D03*
D12*
X94820500Y-110683000D03*
X94820500Y-112583000D03*
X96695500Y-111633000D03*
X82755500Y-109921000D03*
X82755500Y-111821000D03*
X84630500Y-110871000D03*
D13*
X51563000Y-59275000D03*
X65023000Y-59275000D03*
D14*
X65023000Y-70450000D03*
D15*
X58293000Y-70450000D03*
D14*
X65023000Y-57950000D03*
D16*
X63458000Y-70450000D03*
D13*
X65023000Y-69125000D03*
D17*
X51563000Y-64200000D03*
D15*
X58293000Y-57950000D03*
D14*
X51563000Y-70450000D03*
D16*
X63458000Y-57950000D03*
X53128000Y-70450000D03*
D13*
X51563000Y-69125000D03*
D16*
X53128000Y-57950000D03*
D14*
X51563000Y-57950000D03*
D17*
X65023000Y-64200000D03*
D15*
X114400000Y-50843000D03*
D14*
X108150000Y-64303000D03*
D18*
X108150000Y-62738000D03*
D19*
X119325000Y-64303000D03*
D18*
X120650000Y-62738000D03*
X108150000Y-52408000D03*
D14*
X120650000Y-64303000D03*
D17*
X108150000Y-57573000D03*
D15*
X114400000Y-64303000D03*
D19*
X119325000Y-50843000D03*
D18*
X120650000Y-52408000D03*
D14*
X108150000Y-50843000D03*
D17*
X120650000Y-57573000D03*
D14*
X120650000Y-50843000D03*
D19*
X109475000Y-50843000D03*
X109475000Y-64303000D03*
D15*
X111825000Y-105124000D03*
D14*
X105575000Y-118584000D03*
D18*
X105575000Y-117019000D03*
D19*
X116750000Y-118584000D03*
D18*
X118075000Y-117019000D03*
X105575000Y-106689000D03*
D14*
X118075000Y-118584000D03*
D17*
X105575000Y-111854000D03*
D15*
X111825000Y-118584000D03*
D19*
X116750000Y-105124000D03*
D18*
X118075000Y-106689000D03*
D14*
X105575000Y-105124000D03*
D17*
X118075000Y-111854000D03*
D14*
X118075000Y-105124000D03*
D19*
X106900000Y-105124000D03*
X106900000Y-118584000D03*
D20*
X75016500Y-110315000D03*
X76591500Y-110315000D03*
X73533000Y-50927000D03*
X75108000Y-50927000D03*
D21*
X88138000Y-50927000D03*
X88138000Y-52502000D03*
D22*
X100838000Y-50927000D03*
X99263000Y-50927000D03*
D20*
X80086000Y-50927000D03*
X81661000Y-50927000D03*
X75011500Y-118110000D03*
X76586500Y-118110000D03*
X75011500Y-115555000D03*
X76586500Y-115555000D03*
X75011500Y-112830000D03*
X76586500Y-112830000D03*
D23*
X76962000Y-98478000D03*
X76962000Y-100203000D03*
D12*
X69626000Y-67122000D03*
X69626000Y-69022000D03*
X71501000Y-68072000D03*
X76708000Y-69723000D03*
X76708000Y-71623000D03*
X78583000Y-70673000D03*
D24*
X92954000Y-67705000D03*
X92954000Y-68355000D03*
X92954000Y-69005000D03*
X92954000Y-69655000D03*
X92954000Y-70305000D03*
X92954000Y-70955000D03*
X92954000Y-71605000D03*
X98679000Y-71605000D03*
X98679000Y-70955000D03*
X98679000Y-70305000D03*
X98679000Y-69655000D03*
X98679000Y-69005000D03*
X98679000Y-68355000D03*
X98679000Y-67705000D03*
D11*
X52812500Y-72660000D03*
X54637500Y-72660000D03*
D25*
X93944000Y-54804000D03*
X97069000Y-54804000D03*
D11*
X73050000Y-56253000D03*
X74875000Y-56253000D03*
D26*
X78613000Y-98378000D03*
X78613000Y-100203000D03*
X100584000Y-102997000D03*
X100584000Y-104822000D03*
D12*
X90425000Y-110249500D03*
X90425000Y-112149500D03*
X92300000Y-111199500D03*
D27*
X67842000Y-51983000D03*
X66017000Y-51983000D03*
D28*
X94869000Y-66040000D03*
X93144000Y-66040000D03*
D29*
X100584000Y-108458000D03*
X100584000Y-106733000D03*
D23*
X86425000Y-114424500D03*
X86425000Y-116149500D03*
D30*
X80601000Y-97155000D03*
X80601000Y-98425000D03*
X80601000Y-99695000D03*
X80601000Y-100965000D03*
X87801000Y-100965000D03*
X87801000Y-99695000D03*
X87801000Y-98425000D03*
X87801000Y-97155000D03*
D31*
X60047000Y-55626000D03*
X61772000Y-55626000D03*
X99824200Y-66141600D03*
X101549200Y-66141600D03*
D10*
X67371500Y-112825000D03*
X67371500Y-111000000D03*
D23*
X91216500Y-104955000D03*
X91216500Y-106680000D03*
D12*
X99162000Y-110257500D03*
X99162000Y-112157500D03*
X101037000Y-111207500D03*
D32*
X95692500Y-85758000D03*
X87942500Y-85758000D03*
D33*
X77425000Y-53483000D03*
X77425000Y-54753000D03*
X77425000Y-56023000D03*
X77425000Y-57293000D03*
X82375000Y-57293000D03*
X82375000Y-56023000D03*
X82375000Y-54753000D03*
X82375000Y-53483000D03*
D11*
X83675000Y-87460000D03*
X85500000Y-87460000D03*
D10*
X86627000Y-50905500D03*
X86627000Y-52730500D03*
D31*
X89080000Y-71448000D03*
X90805000Y-71448000D03*
D27*
X85500000Y-77724000D03*
X83675000Y-77724000D03*
D34*
X76101000Y-64290000D03*
X76101000Y-66040000D03*
X77851000Y-64290000D03*
X77851000Y-66040000D03*
D35*
X74538500Y-63415000D03*
X74538500Y-63915000D03*
X74538500Y-64415000D03*
X74538500Y-64915000D03*
X74538500Y-65415000D03*
X74538500Y-65915000D03*
X74538500Y-66415000D03*
X74538500Y-66915000D03*
D36*
X75226000Y-67602500D03*
X75726000Y-67602500D03*
X76226000Y-67602500D03*
X76726000Y-67602500D03*
X77226000Y-67602500D03*
X77726000Y-67602500D03*
X78226000Y-67602500D03*
X78726000Y-67602500D03*
D35*
X79413500Y-66915000D03*
X79413500Y-66415000D03*
X79413500Y-65915000D03*
X79413500Y-65415000D03*
X79413500Y-64915000D03*
X79413500Y-64415000D03*
X79413500Y-63915000D03*
X79413500Y-63415000D03*
D36*
X78726000Y-62727500D03*
X78226000Y-62727500D03*
X77726000Y-62727500D03*
X77226000Y-62727500D03*
X76726000Y-62727500D03*
X76226000Y-62727500D03*
X75726000Y-62727500D03*
X75226000Y-62727500D03*
D37*
X64871500Y-116125000D03*
X64871500Y-113000000D03*
D38*
X76454000Y-93188000D03*
X76454000Y-93838000D03*
X76454000Y-94488000D03*
X76454000Y-95138000D03*
X80679000Y-95138000D03*
X80679000Y-94488000D03*
X80679000Y-93838000D03*
X80679000Y-93188000D03*
D10*
X62342000Y-53808000D03*
X62342000Y-51983000D03*
D11*
X104038500Y-62451597D03*
X105863500Y-62451597D03*
D23*
X86875000Y-54282000D03*
X86875000Y-56007000D03*
D28*
X100354500Y-52705000D03*
X98629500Y-52705000D03*
D27*
X80934000Y-112442500D03*
X79109000Y-112442500D03*
D32*
X95696000Y-81280000D03*
X87946000Y-81280000D03*
D11*
X95150300Y-109169200D03*
X96975300Y-109169200D03*
D39*
X88842000Y-118149500D03*
X91942000Y-118149500D03*
D10*
X72461000Y-59817000D03*
X72461000Y-57992000D03*
D27*
X91530500Y-56129403D03*
X89705500Y-56129403D03*
D31*
X63646500Y-111000000D03*
X65371500Y-111000000D03*
D40*
X88452000Y-114174500D03*
X88452000Y-114814500D03*
X88452000Y-115474500D03*
X88452000Y-116114500D03*
X91872000Y-116114500D03*
X91872000Y-115474500D03*
X91872000Y-114814500D03*
X91872000Y-114174500D03*
D10*
X74041000Y-107315000D03*
X74041000Y-105490000D03*
D26*
X66675000Y-63650500D03*
X66675000Y-61825500D03*
D12*
X80675000Y-106492000D03*
X80675000Y-108392000D03*
X82550000Y-107442000D03*
D11*
X61400000Y-90460000D03*
X63225000Y-90460000D03*
D27*
X84963000Y-50927000D03*
X83138000Y-50927000D03*
D31*
X63399500Y-101092000D03*
X65124500Y-101092000D03*
D29*
X90932000Y-68146000D03*
X90932000Y-66421000D03*
X102108000Y-108458000D03*
X102108000Y-106733000D03*
D33*
X53275000Y-76660000D03*
X53275000Y-77930000D03*
X53275000Y-79200000D03*
X53275000Y-80470000D03*
X58225000Y-80470000D03*
X58225000Y-79200000D03*
X58225000Y-77930000D03*
X58225000Y-76660000D03*
D41*
X64601500Y-108450000D03*
X65871500Y-108450000D03*
X67141500Y-108450000D03*
X68411500Y-108450000D03*
X68411500Y-103500000D03*
X67141500Y-103500000D03*
X65871500Y-103500000D03*
X64601500Y-103500000D03*
D29*
X82677000Y-94996000D03*
X82677000Y-93271000D03*
D28*
X70718000Y-65151000D03*
X72443000Y-65151000D03*
D12*
X76073000Y-58933000D03*
X76073000Y-60833000D03*
X77948000Y-59883000D03*
X100106000Y-62169000D03*
X100106000Y-64069000D03*
X101981000Y-63119000D03*
D28*
X88138000Y-109982000D03*
X86413000Y-109982000D03*
D11*
X61400000Y-92460000D03*
X63225000Y-92460000D03*
D42*
X70471500Y-110000000D03*
X72371500Y-110000000D03*
X71421500Y-108125000D03*
D11*
X52675000Y-82770000D03*
X54500000Y-82770000D03*
D24*
X79775000Y-79360000D03*
X79775000Y-80010000D03*
X79775000Y-80660000D03*
X79775000Y-81310000D03*
X79775000Y-81960000D03*
X79775000Y-82610000D03*
X79775000Y-83260000D03*
X85500000Y-83260000D03*
X85500000Y-82610000D03*
X85500000Y-81960000D03*
X85500000Y-81310000D03*
X85500000Y-80660000D03*
X85500000Y-80010000D03*
X85500000Y-79360000D03*
D23*
X74875000Y-52528000D03*
X74875000Y-54253000D03*
D29*
X96393000Y-90513000D03*
X96393000Y-88788000D03*
X89662000Y-97663000D03*
X89662000Y-95938000D03*
D27*
X80932500Y-119104500D03*
X79107500Y-119104500D03*
D11*
X104217000Y-52229000D03*
X106042000Y-52229000D03*
X89705500Y-54629403D03*
X91530500Y-54629403D03*
D29*
X84875000Y-59478000D03*
X84875000Y-57753000D03*
D11*
X79175000Y-87440000D03*
X81000000Y-87440000D03*
D33*
X106172000Y-56681597D03*
X106172000Y-57951597D03*
X106172000Y-59221597D03*
X106172000Y-60491597D03*
X101222000Y-60491597D03*
X101222000Y-59221597D03*
X101222000Y-57951597D03*
X101222000Y-56681597D03*
D26*
X78636500Y-101894000D03*
X78636500Y-103719000D03*
D25*
X64008000Y-56007000D03*
X67133000Y-56007000D03*
D10*
X77216000Y-107362000D03*
X77216000Y-105537000D03*
D31*
X93844000Y-52705000D03*
X95569000Y-52705000D03*
D26*
X63435500Y-117856000D03*
X63435500Y-119681000D03*
X67818000Y-67183000D03*
X67818000Y-69008000D03*
D27*
X85500000Y-85490000D03*
X83675000Y-85490000D03*
D11*
X97213500Y-59451597D03*
X99038500Y-59451597D03*
D10*
X96685500Y-62824597D03*
X96685500Y-60999597D03*
D28*
X92202000Y-78359000D03*
X90477000Y-78359000D03*
D11*
X85598000Y-69797000D03*
X87423000Y-69797000D03*
D10*
X94615000Y-59516000D03*
X94615000Y-61341000D03*
D43*
X98812000Y-92609000D03*
X98012000Y-92609000D03*
X97212000Y-92609000D03*
X96412000Y-92609000D03*
X95612000Y-92609000D03*
X94812000Y-92609000D03*
X94012000Y-92609000D03*
X93212000Y-92609000D03*
D44*
X91837000Y-93984000D03*
X91837000Y-94784000D03*
X91837000Y-95584000D03*
X91837000Y-96384000D03*
X91837000Y-97184000D03*
X91837000Y-97984000D03*
X91837000Y-98784000D03*
X91837000Y-99584000D03*
D43*
X93212000Y-100959000D03*
X94012000Y-100959000D03*
X94812000Y-100959000D03*
X95612000Y-100959000D03*
X96412000Y-100959000D03*
X97212000Y-100959000D03*
X98012000Y-100959000D03*
X98812000Y-100959000D03*
D44*
X100187000Y-99584000D03*
X100187000Y-98784000D03*
X100187000Y-97984000D03*
X100187000Y-97184000D03*
X100187000Y-96384000D03*
X100187000Y-95584000D03*
X100187000Y-94784000D03*
X100187000Y-93984000D03*
D10*
X89662000Y-101219000D03*
X89662000Y-99394000D03*
D45*
X87673000Y-65024000D03*
X87673000Y-63754000D03*
X87673000Y-62484000D03*
X87673000Y-61214000D03*
X82423000Y-61214000D03*
X82423000Y-62484000D03*
X82423000Y-63754000D03*
X82423000Y-65024000D03*
D28*
X70792000Y-63373000D03*
X72517000Y-63373000D03*
D10*
X59342000Y-53808000D03*
X59342000Y-51983000D03*
D27*
X77500000Y-79450000D03*
X75675000Y-79450000D03*
D26*
X98171000Y-85551000D03*
X98171000Y-87376000D03*
D11*
X75675000Y-81460000D03*
X77500000Y-81460000D03*
D39*
X97079000Y-118157500D03*
X100179000Y-118157500D03*
D10*
X60133500Y-112649000D03*
X60133500Y-110824000D03*
D33*
X93472000Y-103759000D03*
X93472000Y-105029000D03*
X93472000Y-106299000D03*
X93472000Y-107569000D03*
X98422000Y-107569000D03*
X98422000Y-106299000D03*
X98422000Y-105029000D03*
X98422000Y-103759000D03*
D29*
X92583000Y-75131000D03*
X92583000Y-73406000D03*
D46*
X54657000Y-60010000D03*
X54657000Y-60960000D03*
X54657000Y-61910000D03*
X57357000Y-61910000D03*
X57357000Y-60960000D03*
X57357000Y-60010000D03*
D47*
X123852500Y-70726000D03*
X123852500Y-75176000D03*
X123852500Y-79626000D03*
X123852500Y-84076000D03*
X123852500Y-88526000D03*
X123852500Y-92976000D03*
X123852500Y-97426000D03*
D48*
X121927500Y-101201000D03*
X117327500Y-101201000D03*
X112727500Y-101201000D03*
X108127500Y-101201000D03*
D47*
X106202500Y-97426000D03*
X106202500Y-92976000D03*
X106202500Y-88526000D03*
X106202500Y-84076000D03*
X106202500Y-79626000D03*
X106202500Y-75176000D03*
X106202500Y-70726000D03*
D49*
X121227500Y-66951000D03*
D50*
X109527500Y-66951000D03*
D40*
X96759000Y-114072500D03*
X96759000Y-114712500D03*
X96759000Y-115372500D03*
X96759000Y-116012500D03*
X100179000Y-116012500D03*
X100179000Y-115372500D03*
X100179000Y-114712500D03*
X100179000Y-114072500D03*
D11*
X70546500Y-112000000D03*
X72371500Y-112000000D03*
D29*
X75636500Y-103619000D03*
X75636500Y-101894000D03*
D27*
X78486000Y-50927000D03*
X76661000Y-50927000D03*
X67371500Y-118500000D03*
X65546500Y-118500000D03*
D10*
X89408000Y-74900500D03*
X89408000Y-73075500D03*
D26*
X86875000Y-57703000D03*
X86875000Y-59528000D03*
D11*
X52675000Y-84328000D03*
X54500000Y-84328000D03*
D27*
X83947000Y-69797000D03*
X82122000Y-69797000D03*
D29*
X94532000Y-90513000D03*
X94532000Y-88788000D03*
D27*
X72371500Y-114000000D03*
X70546500Y-114000000D03*
D26*
X73376000Y-69789000D03*
X73376000Y-71614000D03*
D10*
X99695000Y-87376000D03*
X99695000Y-85551000D03*
D26*
X74900000Y-69789000D03*
X74900000Y-71614000D03*
D29*
X60000000Y-108250000D03*
X60000000Y-106525000D03*
D11*
X75645000Y-96774000D03*
X77470000Y-96774000D03*
D10*
X61935500Y-119681000D03*
X61935500Y-117856000D03*
D51*
X91313000Y-57912000D03*
X91313000Y-61037000D03*
D31*
X107951100Y-110134400D03*
X109676100Y-110134400D03*
D52*
X61509000Y-65866500D03*
X62159000Y-65866500D03*
X62809000Y-65866500D03*
X63459000Y-65866500D03*
X63459000Y-61641500D03*
X62809000Y-61641500D03*
X62159000Y-61641500D03*
X61509000Y-61641500D03*
D31*
X83111000Y-75438000D03*
X84836000Y-75438000D03*
D11*
X100537000Y-67765000D03*
X102362000Y-67765000D03*
D26*
X98209500Y-60952597D03*
X98209500Y-62777597D03*
D28*
X109220500Y-108458000D03*
X107495500Y-108458000D03*
D29*
X61633500Y-112549000D03*
X61633500Y-110824000D03*
D11*
X100636700Y-54229000D03*
X102461700Y-54229000D03*
D27*
X102362000Y-69259000D03*
X100537000Y-69259000D03*
D38*
X111572000Y-60376000D03*
X111572000Y-61026000D03*
X111572000Y-61676000D03*
X111572000Y-62326000D03*
X115797000Y-62326000D03*
X115797000Y-61676000D03*
X115797000Y-61026000D03*
X115797000Y-60376000D03*
D31*
X61648000Y-59690000D03*
X63373000Y-59690000D03*
D27*
X75692000Y-73279000D03*
X73867000Y-73279000D03*
D11*
X89408000Y-108331000D03*
X91233000Y-108331000D03*
D28*
X69087500Y-99000000D03*
X67362500Y-99000000D03*
D27*
X81500000Y-77724000D03*
X79675000Y-77724000D03*
D23*
X99038500Y-55726597D03*
X99038500Y-57451597D03*
D11*
X82163000Y-68209000D03*
X83988000Y-68209000D03*
D31*
X89805500Y-53129403D03*
X91530500Y-53129403D03*
D25*
X69112000Y-118491000D03*
X72237000Y-118491000D03*
D31*
X89334000Y-102997000D03*
X91059000Y-102997000D03*
D29*
X127000000Y-101854000D03*
X127000000Y-100129000D03*
D46*
X112823500Y-106873000D03*
X112823500Y-107823000D03*
X112823500Y-108773000D03*
X115523500Y-108773000D03*
X115523500Y-107823000D03*
X115523500Y-106873000D03*
D31*
X77269000Y-73279000D03*
X78994000Y-73279000D03*
D53*
X62000000Y-106000000D03*
X62000000Y-104250000D03*
D26*
X74073000Y-57992000D03*
X74073000Y-59817000D03*
D25*
X69750000Y-53753000D03*
X72875000Y-53753000D03*
D54*
X60250000Y-98200000D03*
X60250000Y-102300000D03*
D33*
X52550000Y-85918000D03*
X52550000Y-87188000D03*
X52550000Y-88458000D03*
X52550000Y-89728000D03*
X57500000Y-89728000D03*
X57500000Y-88458000D03*
X57500000Y-87188000D03*
X57500000Y-85918000D03*
D27*
X80932500Y-114024500D03*
X79107500Y-114024500D03*
D55*
X60284000Y-117267500D03*
X59634000Y-117267500D03*
X58984000Y-117267500D03*
X58334000Y-117267500D03*
X58334000Y-121492500D03*
X58984000Y-121492500D03*
X59634000Y-121492500D03*
X60284000Y-121492500D03*
D26*
X80488000Y-69869000D03*
X80488000Y-71694000D03*
D23*
X117702000Y-60459000D03*
X117702000Y-62184000D03*
D31*
X83111000Y-66675000D03*
X84836000Y-66675000D03*
D26*
X90932000Y-73052000D03*
X90932000Y-74877000D03*
D11*
X61400000Y-79160000D03*
X63225000Y-79160000D03*
D31*
X69650000Y-51253000D03*
X71375000Y-51253000D03*
D11*
X87456000Y-68146000D03*
X89281000Y-68146000D03*
D26*
X78737500Y-105537000D03*
X78737500Y-107362000D03*
D11*
X61400000Y-77160000D03*
X63225000Y-77160000D03*
D23*
X87881500Y-73152000D03*
X87881500Y-74877000D03*
D33*
X61279000Y-81026000D03*
X61279000Y-82296000D03*
X61279000Y-83566000D03*
X61279000Y-84836000D03*
X66229000Y-84836000D03*
X66229000Y-83566000D03*
X66229000Y-82296000D03*
X66229000Y-81026000D03*
D25*
X80503500Y-104394000D03*
X83628500Y-104394000D03*
D26*
X67818000Y-70565000D03*
X67818000Y-72390000D03*
X84875000Y-53928000D03*
X84875000Y-55753000D03*
D10*
X75692000Y-105490000D03*
X75692000Y-107315000D03*
D46*
X115971000Y-53360000D03*
X115971000Y-54310000D03*
X115971000Y-55260000D03*
X118671000Y-55260000D03*
X118671000Y-54310000D03*
X118671000Y-53360000D03*
D27*
X81000000Y-85460000D03*
X79175000Y-85460000D03*
D11*
X69175000Y-101000000D03*
X71000000Y-101000000D03*
D31*
X89842000Y-88900000D03*
X91567000Y-88900000D03*
D27*
X87757000Y-102997000D03*
X85932000Y-102997000D03*
D26*
X63842000Y-51983000D03*
X63842000Y-53808000D03*
D28*
X105992000Y-54229000D03*
X104267000Y-54229000D03*
D23*
X60000000Y-96315700D03*
X60000000Y-94590700D03*
D11*
X100537000Y-70813000D03*
X102362000Y-70813000D03*
D29*
X62371500Y-116225000D03*
X62371500Y-114500000D03*
D11*
X95838000Y-50927000D03*
X97663000Y-50927000D03*
X52900000Y-74660000D03*
X54725000Y-74660000D03*
X107522500Y-106807000D03*
X109347500Y-106807000D03*
D29*
X94679000Y-116078000D03*
X94679000Y-114353000D03*
D28*
X88011000Y-95250000D03*
X86286000Y-95250000D03*
D31*
X77904000Y-74930000D03*
X79629000Y-74930000D03*
D24*
X70275000Y-83260000D03*
X70275000Y-83910000D03*
X70275000Y-84560000D03*
X70275000Y-85210000D03*
X70275000Y-85860000D03*
X70275000Y-86510000D03*
X70275000Y-87160000D03*
X70275000Y-87810000D03*
X70275000Y-88460000D03*
X70275000Y-89110000D03*
X76000000Y-89110000D03*
X76000000Y-88460000D03*
X76000000Y-87810000D03*
X76000000Y-87160000D03*
X76000000Y-86510000D03*
X76000000Y-85860000D03*
X76000000Y-85210000D03*
X76000000Y-84560000D03*
X76000000Y-83910000D03*
X76000000Y-83260000D03*
D10*
X77136500Y-103719000D03*
X77136500Y-101894000D03*
D33*
X66050000Y-91190000D03*
X66050000Y-92460000D03*
X66050000Y-93730000D03*
X66050000Y-95000000D03*
X71000000Y-95000000D03*
X71000000Y-93730000D03*
X71000000Y-92460000D03*
X71000000Y-91190000D03*
D11*
X89705500Y-51629403D03*
X91530500Y-51629403D03*
D27*
X80932500Y-116649500D03*
X79107500Y-116649500D03*
D28*
X70792000Y-61849000D03*
X72517000Y-61849000D03*
D46*
X52879000Y-116906000D03*
X52879000Y-117856000D03*
X52879000Y-118806000D03*
X55579000Y-118806000D03*
X55579000Y-117856000D03*
X55579000Y-116906000D03*
D25*
X86091500Y-105029000D03*
X89216500Y-105029000D03*
D31*
X58854000Y-123444000D03*
X60579000Y-123444000D03*
D11*
X79875000Y-59253000D03*
X81700000Y-59253000D03*
D52*
X107787800Y-116666500D03*
X108437800Y-116666500D03*
X109087800Y-116666500D03*
X109737800Y-116666500D03*
X109737800Y-112441500D03*
X109087800Y-112441500D03*
X108437800Y-112441500D03*
X107787800Y-112441500D03*
D27*
X90805000Y-69797000D03*
X88980000Y-69797000D03*
D28*
X84836000Y-72928000D03*
X83111000Y-72928000D03*
M02*
