M48
; DRILL file {KiCad 7.0.5} date Mon Jul 24 06:03:45 2023
; FORMAT={-:-/ absolute / metric / decimal}
; #@! TF.CreationDate,2023-07-24T06:03:45-06:00
; #@! TF.GenerationSoftware,Kicad,Pcbnew,7.0.5
; #@! TF.FileFunction,Plated,1,4,PTH
FMAT,2
METRIC
; #@! TA.AperFunction,Plated,PTH,ViaDrill
T1C0.400
; #@! TA.AperFunction,Plated,PTH,ViaDrill
T2C0.600
; #@! TA.AperFunction,Plated,PTH,ComponentDrill
T3C0.650
; #@! TA.AperFunction,Plated,PTH,ComponentDrill
T4C0.700
; #@! TA.AperFunction,Plated,PTH,ComponentDrill
T5C0.800
; #@! TA.AperFunction,Plated,PTH,ComponentDrill
T6C1.000
; #@! TA.AperFunction,Plated,PTH,ComponentDrill
T7C1.500
; #@! TA.AperFunction,Plated,PTH,ComponentDrill
T8C1.700
; #@! TA.AperFunction,Plated,PTH,ComponentDrill
T9C3.800
%
G90
G05
T1
X53.213Y-60.071
X54.356Y-67.945
X55.245Y-58.776
X55.245Y-69.342
X55.88Y-57.404
X55.9Y-79.5
X56.515Y-68.453
X56.769Y-92.837
X57.277Y-118.872
X58.0Y-84.8
X58.166Y-56.8
X58.166Y-100.203
X58.42Y-111.252
X59.16Y-59.541
X59.182Y-124.587
X59.436Y-119.761
X60.579Y-50.673
X60.706Y-60.833
X60.8Y-74.0
X60.833Y-114.681
X60.833Y-125.73
X61.214Y-51.943
X61.214Y-108.077
X61.341Y-67.818
X61.722Y-56.896
X61.722Y-109.601
X62.099Y-107.394
X62.23Y-67.31
X63.246Y-63.5
X63.5Y-88.184
X64.008Y-96.139
X64.643Y-71.755
X65.272Y-114.3
X65.917Y-106.684
X66.272Y-65.002
X66.421Y-109.855
X66.471Y-114.0
X66.53Y-102.085
X66.548Y-115.316
X66.734Y-97.287
X66.865Y-111.782
X67.059Y-96.384
X67.564Y-101.981
X67.945Y-99.822
X68.072Y-57.785
X68.199Y-52.959
X68.242Y-105.241
X68.281Y-96.52
X68.395Y-55.703
X68.58Y-83.947
X68.707Y-82.423
X68.716Y-106.892
X68.8Y-86.0
X69.045Y-85.031
X69.165Y-109.982
X69.469Y-76.454
X69.574Y-72.666
X69.6Y-89.736
X69.747Y-64.262
X69.761Y-105.392
X69.837Y-115.57
X70.485Y-57.404
X70.51Y-71.12
X70.612Y-60.452
X70.968Y-59.436
X70.993Y-69.215
X70.993Y-101.981
X71.0Y-82.0
X71.374Y-70.358
X71.471Y-113.2
X71.475Y-83.224
X71.501Y-53.848
X71.628Y-66.548
X71.834Y-110.438
X72.39Y-112.903
X72.644Y-108.204
X72.739Y-66.389
X73.035Y-56.393
X73.152Y-84.074
X73.404Y-67.769
X73.406Y-98.679
X73.543Y-64.524
X73.66Y-81.28
X73.787Y-62.611
X74.041Y-90.678
X74.041Y-103.886
X74.295Y-101.473
X74.32Y-55.855
X74.5Y-87.0
X74.549Y-84.733
X74.6Y-83.224
X74.676Y-68.382
X74.676Y-74.295
X74.803Y-62.255
X75.0Y-90.4
X75.184Y-108.966
X75.773Y-60.237
X75.819Y-57.531
X76.3Y-91.0
X76.414Y-89.541
X76.753Y-81.1
X77.297Y-84.525
X77.482Y-83.002
X78.057Y-108.462
X78.232Y-64.008
X78.3Y-82.5
X78.359Y-66.421
X78.359Y-71.585
X78.613Y-79.883
X78.613Y-83.831
X78.74Y-91.44
X78.8Y-61.723
X78.843Y-97.155
X78.916Y-93.639
X79.0Y-78.4
X79.121Y-69.813
X79.202Y-52.392
X79.248Y-72.245
X79.255Y-101.394
X79.365Y-95.508
X79.48Y-67.564
X79.657Y-62.306
X79.8Y-91.661
X80.01Y-89.916
X80.137Y-73.025
X80.137Y-110.109
X80.264Y-102.665
X80.554Y-67.123
X80.629Y-64.096
X80.645Y-96.012
X80.772Y-75.057
X80.772Y-126.262
X80.828Y-65.035
X80.833Y-59.995
X80.875Y-56.253
X81.153Y-61.976
X81.153Y-68.707
X81.153Y-88.265
X81.28Y-72.517
X81.292Y-107.061
X81.534Y-78.867
X81.695Y-65.445
X81.788Y-66.764
X81.915Y-126.262
X82.042Y-101.092
X82.042Y-104.267
X82.169Y-84.733
X82.169Y-88.138
X82.169Y-85.725
X82.677Y-110.744
X82.806Y-71.723
X83.058Y-68.961
X83.6Y-81.9
X83.693Y-52.451
X83.825Y-90.211
X83.916Y-74.7
X83.947Y-62.494
X83.947Y-95.377
X84.02Y-65.151
X84.074Y-70.993
X84.201Y-83.414
X84.201Y-88.186
X84.294Y-101.296
X84.328Y-106.553
X84.582Y-60.579
X84.606Y-61.668
X84.8Y-86.6
X84.836Y-103.505
X85.09Y-66.675
X85.192Y-68.731
X85.271Y-70.968
X85.852Y-93.599
X85.875Y-56.896
X86.099Y-59.995
X86.106Y-97.409
X86.233Y-61.849
X86.49Y-65.084
X86.638Y-72.009
X86.716Y-99.185
X86.86Y-103.766
X86.868Y-101.981
X86.868Y-111.252
X87.352Y-91.186
X87.376Y-66.391
X87.859Y-89.274
X87.884Y-70.866
X88.011Y-93.218
X88.034Y-107.212
X88.265Y-60.071
X88.265Y-82.677
X88.449Y-66.687
X88.539Y-77.827
X88.646Y-89.916
X88.677Y-95.363
X88.691Y-74.014
X88.923Y-106.322
X88.971Y-93.218
X89.053Y-113.411
X89.559Y-61.624
X89.789Y-76.2
X89.916Y-67.056
X89.916Y-91.059
X89.916Y-111.252
X90.043Y-85.114
X90.17Y-63.5
X90.17Y-107.569
X90.696Y-96.267
X90.932Y-81.661
X91.186Y-101.486
X91.694Y-91.724
X91.821Y-76.327
X91.948Y-72.263
X92.075Y-66.294
X92.402Y-93.093
X92.456Y-62.103
X92.583Y-52.959
X92.837Y-87.503
X92.964Y-77.216
X93.218Y-58.674
X93.255Y-97.239
X93.295Y-96.266
X93.472Y-108.712
X93.588Y-98.647
X93.726Y-83.414
X93.853Y-85.344
X93.98Y-93.853
X94.326Y-71.313
X94.539Y-117.078
X94.542Y-70.378
X94.869Y-68.58
X94.869Y-94.234
X95.377Y-98.806
X95.504Y-53.848
X95.504Y-88.9
X95.504Y-113.284
X95.8Y-91.0
X95.885Y-54.864
X95.919Y-56.759
X96.012Y-95.377
X96.039Y-116.757
X96.139Y-59.436
X96.139Y-110.617
X96.52Y-107.188
X96.569Y-70.358
X96.647Y-64.262
X96.759Y-112.776
X96.774Y-104.267
X96.879Y-78.207
X96.901Y-76.962
X96.901Y-105.537
X97.028Y-99.695
X97.155Y-68.326
X98.044Y-99.695
X98.044Y-102.867
X98.044Y-111.506
X98.322Y-112.757
X98.425Y-73.456
X98.425Y-108.585
X98.679Y-94.869
X98.679Y-97.155
X99.082Y-111.465
X99.187Y-54.229
X99.296Y-72.364
X99.441Y-60.96
X99.695Y-74.115
X100.438Y-63.592
X100.838Y-78.867
X100.962Y-91.694
X101.138Y-100.919
X101.586Y-98.038
X101.6Y-105.283
X101.854Y-83.058
X102.068Y-64.349
X102.108Y-109.728
X102.465Y-98.425
X102.489Y-52.578
X102.638Y-61.392
X102.64Y-91.694
X102.743Y-100.268
X103.124Y-97.663
X103.251Y-90.551
X103.378Y-66.548
X103.759Y-100.33
X104.267Y-57.252
X104.697Y-90.551
X104.716Y-58.747
X105.918Y-56.134
X106.68Y-113.538
X106.883Y-110.109
X107.315Y-62.23
X107.992Y-77.893
X108.052Y-114.554
X108.331Y-105.918
X108.411Y-107.465
X108.966Y-71.705
X109.525Y-114.452
X109.664Y-62.293
X110.109Y-100.076
X110.617Y-106.299
X110.796Y-110.134
X110.871Y-117.602
X111.125Y-113.157
X111.252Y-73.279
X111.379Y-119.761
X111.479Y-63.327
X111.506Y-88.138
X111.784Y-106.807
X111.911Y-116.23
X112.268Y-69.596
X112.395Y-75.311
X113.03Y-62.23
X114.3Y-62.992
X114.781Y-52.278
X114.808Y-102.616
X114.808Y-105.988
X115.567Y-56.469
X115.824Y-121.309
X116.332Y-72.771
X116.332Y-115.189
X116.84Y-120.65
X116.967Y-80.137
X117.094Y-77.089
X117.221Y-125.222
X117.348Y-73.025
X117.475Y-88.773
X117.956Y-52.024
X117.983Y-83.058
X118.083Y-59.39
X118.418Y-74.397
X118.591Y-57.104
X118.972Y-63.073
X118.999Y-121.666
X121.412Y-79.756
X123.571Y-82.55
X124.714Y-82.576
X124.944Y-81.407
X126.746Y-98.806
X127.858Y-98.933
X128.016Y-91.821
T2
X78.965Y-127.143
X89.662Y-128.892
T3
X83.002Y-114.149
X83.002Y-116.649
X83.002Y-119.149
X84.272Y-114.149
X84.272Y-116.649
X84.272Y-119.149
X92.075Y-63.754
X93.345Y-63.754
X94.615Y-63.754
X98.156Y-82.931
X99.426Y-82.931
X127.889Y-71.247
X127.889Y-72.517
X127.889Y-73.787
X127.889Y-75.057
X127.889Y-76.327
X127.889Y-77.597
X127.889Y-78.867
X127.889Y-80.137
X127.889Y-81.407
X127.889Y-82.677
X127.889Y-83.947
X127.889Y-85.217
T4
X51.816Y-113.538
X53.721Y-66.167
X56.896Y-113.538
X58.801Y-66.167
X111.86Y-52.786
X111.86Y-57.866
X114.173Y-111.252
X114.173Y-116.332
T5
X57.225Y-74.16
X60.38Y-87.5
X64.845Y-74.16
X65.25Y-121.7
X65.25Y-123.7
X65.605Y-78.66
X67.25Y-121.7
X67.25Y-123.7
X68.0Y-87.5
X69.25Y-121.7
X69.25Y-123.7
X71.25Y-121.7
X71.25Y-123.7
X73.225Y-78.66
X73.25Y-121.7
X73.25Y-123.7
X75.25Y-121.7
X75.25Y-123.7
X77.25Y-121.7
X77.25Y-123.7
X78.38Y-89.96
X79.25Y-121.7
X79.25Y-123.7
X81.25Y-121.7
X81.25Y-123.7
X83.25Y-121.7
X83.25Y-123.7
X85.25Y-121.7
X85.25Y-123.7
X86.0Y-89.96
X87.25Y-121.7
X87.25Y-123.7
X89.25Y-121.7
X89.25Y-123.7
X91.25Y-121.7
X91.25Y-123.7
X93.25Y-121.7
X93.25Y-123.7
X94.742Y-74.115
X94.742Y-76.782
X95.25Y-121.7
X95.25Y-123.7
X97.25Y-121.7
X97.25Y-123.7
X99.25Y-121.7
X99.25Y-123.7
X101.25Y-121.7
X101.25Y-123.7
X102.362Y-74.115
X102.362Y-76.782
X103.25Y-121.7
X103.25Y-123.7
X105.25Y-121.7
X105.25Y-123.7
X107.25Y-121.7
X107.25Y-123.7
X109.25Y-121.7
X109.25Y-123.7
X111.25Y-121.7
X111.25Y-123.7
X113.25Y-121.7
X113.25Y-123.7
T6
X53.102Y-92.998
X53.102Y-95.538
X53.102Y-98.078
X53.102Y-105.698
X53.102Y-108.239
X67.818Y-75.184
X70.358Y-75.184
T7
X123.19Y-108.204
T8
X120.65Y-105.664
X120.65Y-110.744
X125.73Y-105.664
X125.73Y-110.744
T9
X54.5Y-53.7
X54.5Y-123.65
X124.5Y-53.7
X124.5Y-123.65
T0
M30
