M48
; DRILL file {KiCad 7.0.2} date Fri Apr 28 23:30:51 2023
; FORMAT={-:-/ absolute / metric / decimal}
; #@! TF.CreationDate,2023-04-28T23:30:51-06:00
; #@! TF.GenerationSoftware,Kicad,Pcbnew,7.0.2
; #@! TF.FileFunction,Plated,1,4,PTH
FMAT,2
METRIC
; #@! TA.AperFunction,Plated,PTH,ViaDrill
T1C0.400
; #@! TA.AperFunction,Plated,PTH,ComponentDrill
T2C0.762
; #@! TA.AperFunction,Plated,PTH,ComponentDrill
T3C0.800
; #@! TA.AperFunction,Plated,PTH,ComponentDrill
T4C1.000
; #@! TA.AperFunction,Plated,PTH,ComponentDrill
T5C3.800
%
G90
G05
T1
X51.75Y-100.0
X56.25Y-68.0
X56.25Y-72.0
X58.75Y-81.25
X59.75Y-76.75
X59.75Y-96.75
X60.25Y-65.5
X61.75Y-118.5
X61.851Y-77.983
X61.975Y-123.25
X62.172Y-95.635
X62.575Y-77.275
X63.5Y-90.0
X64.0Y-128.6
X64.251Y-105.536
X64.488Y-82.238
X64.5Y-78.876
X64.5Y-83.75
X64.75Y-59.5
X64.75Y-124.25
X65.25Y-61.75
X65.775Y-68.0
X66.0Y-80.5
X66.0Y-95.5
X66.25Y-56.25
X66.275Y-67.0
X66.275Y-70.0
X66.5Y-51.5
X66.5Y-85.75
X66.5Y-100.75
X66.75Y-94.25
X67.5Y-95.25
X67.75Y-88.5
X67.75Y-90.5
X68.25Y-75.2
X68.25Y-80.0
X68.25Y-81.0
X68.25Y-82.0
X68.25Y-83.0
X69.0Y-55.5
X69.0Y-56.5
X69.0Y-57.5
X69.6Y-67.4
X69.6Y-103.4
X69.7Y-74.75
X70.0Y-69.6
X70.0Y-83.75
X70.25Y-73.025
X70.5Y-100.0
X70.525Y-66.763
X70.75Y-76.75
X71.0Y-61.0
X71.5Y-86.0
X71.5Y-95.25
X71.5Y-121.5
X71.794Y-91.948
X72.5Y-62.25
X73.025Y-78.994
X73.25Y-61.0
X73.25Y-75.5
X73.25Y-104.5
X73.257Y-66.421
X73.257Y-69.422
X73.261Y-107.241
X73.5Y-92.275
X73.75Y-83.75
X74.0Y-55.5
X74.0Y-104.5
X74.168Y-78.994
X74.5Y-70.0
X74.8Y-81.2
X75.0Y-59.25
X75.0Y-87.5
X75.2Y-97.6
X75.5Y-66.5
X75.75Y-69.0
X75.75Y-75.5
X75.75Y-78.75
X75.819Y-73.363
X76.0Y-83.0
X76.0Y-103.0
X76.2Y-97.6
X76.224Y-72.0
X76.525Y-67.238
X77.0Y-70.5
X77.0Y-109.5
X77.216Y-90.805
X77.25Y-60.5
X77.25Y-112.75
X77.4Y-88.6
X77.5Y-81.25
X77.5Y-82.25
X77.5Y-83.25
X77.919Y-105.944
X78.0Y-54.0
X78.0Y-68.724
X78.5Y-115.75
X78.95Y-119.0
X79.0Y-71.25
X79.25Y-57.0
X79.47Y-76.751
X79.5Y-96.0
X79.668Y-64.054
X80.0Y-59.5
X80.5Y-63.5
X80.65Y-77.9
X80.974Y-94.5
X81.575Y-91.2
X81.75Y-84.25
X81.754Y-77.754
X82.0Y-86.0
X82.0Y-97.25
X82.25Y-100.5
X82.5Y-83.0
X82.75Y-77.25
X83.5Y-55.5
X83.5Y-86.0
X83.75Y-88.25
X83.75Y-91.5
X83.75Y-93.5
X83.947Y-75.84
X84.0Y-73.75
X84.25Y-105.75
X84.25Y-121.775
X84.5Y-71.75
X84.75Y-61.5
X84.75Y-104.75
X85.25Y-102.25
X85.8Y-92.8
X86.0Y-56.75
X86.0Y-60.0
X86.0Y-84.8
X86.025Y-72.5
X86.25Y-83.0
X86.5Y-78.0
X87.0Y-100.4
X87.25Y-79.75
X87.5Y-97.85
X88.0Y-86.25
X88.4Y-97.9
X88.5Y-66.75
X88.5Y-69.322
X88.5Y-71.75
X88.75Y-73.5
X88.75Y-77.25
X88.911Y-83.957
X89.0Y-81.5
X89.25Y-65.75
X89.316Y-86.952
X90.4Y-82.0
X90.5Y-90.0
X90.616Y-86.952
X90.75Y-75.0
X90.75Y-76.75
X91.826Y-81.407
X91.911Y-79.207
X92.75Y-77.25
X93.737Y-59.075
X94.0Y-78.75
X94.077Y-90.139
X94.161Y-87.707
X94.25Y-54.5
X94.5Y-64.0
X96.0Y-90.0
X96.25Y-87.75
X96.5Y-53.75
X96.75Y-65.5
X97.0Y-69.0
X97.25Y-67.0
X97.39Y-64.474
X97.5Y-85.25
X98.0Y-54.0
X98.5Y-57.5
X99.25Y-51.5
X99.25Y-54.25
X100.25Y-64.5
X100.5Y-67.0
X101.0Y-74.5
X101.0Y-98.0
X101.5Y-63.75
X102.0Y-59.0
X102.225Y-67.725
X102.75Y-69.0
X102.75Y-85.75
X102.75Y-89.25
X103.0Y-66.5
X103.25Y-53.75
X103.5Y-52.0
X104.75Y-52.75
X105.0Y-56.25
X105.0Y-59.5
X105.5Y-76.5
X106.0Y-82.25
X106.25Y-64.25
X107.25Y-90.75
X107.5Y-68.25
X108.25Y-53.0
X111.474Y-68.0
X112.75Y-53.5
T2
X108.2Y-73.93
X108.2Y-76.47
X108.2Y-79.01
X108.2Y-81.55
T3
X68.0Y-125.7
X68.0Y-127.7
X70.0Y-125.7
X70.0Y-127.7
X72.0Y-125.7
X72.0Y-127.7
X74.0Y-125.7
X74.0Y-127.7
X76.0Y-125.7
X76.0Y-127.7
X78.0Y-125.7
X78.0Y-127.7
X80.0Y-125.7
X80.0Y-127.7
X82.0Y-125.7
X82.0Y-127.7
X84.0Y-125.7
X84.0Y-127.7
X85.471Y-69.723
X86.0Y-125.7
X86.0Y-127.7
X88.0Y-125.7
X88.0Y-127.7
X90.0Y-125.7
X90.0Y-127.7
X92.0Y-125.7
X92.0Y-127.7
X93.091Y-69.723
X94.0Y-125.7
X94.0Y-127.7
X96.0Y-125.7
X96.0Y-127.7
X98.0Y-125.7
X98.0Y-127.7
X100.0Y-125.7
X100.0Y-127.7
X102.0Y-125.7
X102.0Y-127.7
X104.0Y-125.7
X104.0Y-127.7
X106.0Y-125.7
X106.0Y-127.7
X108.0Y-125.7
X108.0Y-127.7
X110.0Y-125.7
X110.0Y-127.7
X112.0Y-125.7
X112.0Y-127.7
X114.0Y-125.7
X114.0Y-127.7
X116.0Y-125.7
X116.0Y-127.7
T4
X53.721Y-92.456
X53.721Y-94.996
X53.721Y-97.536
X53.721Y-100.076
X53.721Y-102.616
X53.721Y-105.156
X53.721Y-107.696
X53.721Y-110.236
X53.8Y-77.4
X53.8Y-79.94
X53.8Y-82.48
X53.8Y-85.02
X56.34Y-77.4
X56.34Y-79.94
X56.34Y-82.48
X56.34Y-85.02
X62.575Y-99.445
X62.575Y-101.985
X62.575Y-104.525
X62.575Y-112.145
X62.575Y-114.685
X82.895Y-110.76
X82.895Y-115.32
X82.895Y-119.13
X85.435Y-110.76
X85.435Y-115.32
X85.435Y-119.13
X87.0Y-53.75
X89.54Y-53.75
X95.71Y-73.25
X98.25Y-73.25
X103.755Y-73.93
X103.755Y-76.47
X103.755Y-79.01
X103.755Y-81.55
T5
X57.0Y-57.7
X57.0Y-127.7
X127.0Y-57.7
X127.0Y-127.7
T0
M30
