G04 #@! TF.GenerationSoftware,KiCad,Pcbnew,7.0.2*
G04 #@! TF.CreationDate,2023-04-28T23:30:38-06:00*
G04 #@! TF.ProjectId,BIRDS-X-PCB,42495244-532d-4582-9d50-43422e6b6963,rev?*
G04 #@! TF.SameCoordinates,Original*
G04 #@! TF.FileFunction,Paste,Top*
G04 #@! TF.FilePolarity,Positive*
%FSLAX46Y46*%
G04 Gerber Fmt 4.6, Leading zero omitted, Abs format (unit mm)*
G04 Created by KiCad (PCBNEW 7.0.2) date 2023-04-28 23:30:38*
%MOMM*%
%LPD*%
G01*
G04 APERTURE LIST*
G04 Aperture macros list*
%AMRoundRect*
0 Rectangle with rounded corners*
0 $1 Rounding radius*
0 $2 $3 $4 $5 $6 $7 $8 $9 X,Y pos of 4 corners*
0 Add a 4 corners polygon primitive as box body*
4,1,4,$2,$3,$4,$5,$6,$7,$8,$9,$2,$3,0*
0 Add four circle primitives for the rounded corners*
1,1,$1+$1,$2,$3*
1,1,$1+$1,$4,$5*
1,1,$1+$1,$6,$7*
1,1,$1+$1,$8,$9*
0 Add four rect primitives between the rounded corners*
20,1,$1+$1,$2,$3,$4,$5,0*
20,1,$1+$1,$4,$5,$6,$7,0*
20,1,$1+$1,$6,$7,$8,$9,0*
20,1,$1+$1,$8,$9,$2,$3,0*%
G04 Aperture macros list end*
%ADD10RoundRect,0.250000X0.350000X0.450000X-0.350000X0.450000X-0.350000X-0.450000X0.350000X-0.450000X0*%
%ADD11RoundRect,0.250000X-0.450000X0.350000X-0.450000X-0.350000X0.450000X-0.350000X0.450000X0.350000X0*%
%ADD12RoundRect,0.150000X-0.587500X-0.150000X0.587500X-0.150000X0.587500X0.150000X-0.587500X0.150000X0*%
%ADD13RoundRect,0.250000X-0.475000X0.337500X-0.475000X-0.337500X0.475000X-0.337500X0.475000X0.337500X0*%
%ADD14RoundRect,0.150000X-0.650000X-0.150000X0.650000X-0.150000X0.650000X0.150000X-0.650000X0.150000X0*%
%ADD15R,1.250000X1.000000*%
%ADD16RoundRect,0.250000X-0.350000X-0.450000X0.350000X-0.450000X0.350000X0.450000X-0.350000X0.450000X0*%
%ADD17RoundRect,0.150000X-0.825000X-0.150000X0.825000X-0.150000X0.825000X0.150000X-0.825000X0.150000X0*%
%ADD18R,0.900000X0.800000*%
%ADD19RoundRect,0.250000X-0.400000X-0.625000X0.400000X-0.625000X0.400000X0.625000X-0.400000X0.625000X0*%
%ADD20RoundRect,0.250000X0.450000X-0.350000X0.450000X0.350000X-0.450000X0.350000X-0.450000X-0.350000X0*%
%ADD21R,2.000000X0.400000*%
%ADD22RoundRect,0.250001X-0.462499X-0.624999X0.462499X-0.624999X0.462499X0.624999X-0.462499X0.624999X0*%
%ADD23RoundRect,0.100000X-0.637500X-0.100000X0.637500X-0.100000X0.637500X0.100000X-0.637500X0.100000X0*%
%ADD24RoundRect,0.250000X0.475000X-0.337500X0.475000X0.337500X-0.475000X0.337500X-0.475000X-0.337500X0*%
%ADD25RoundRect,0.125000X-0.125000X0.625000X-0.125000X-0.625000X0.125000X-0.625000X0.125000X0.625000X0*%
%ADD26RoundRect,0.125000X-0.625000X0.125000X-0.625000X-0.125000X0.625000X-0.125000X0.625000X0.125000X0*%
%ADD27R,1.560000X0.650000*%
%ADD28RoundRect,0.250000X-0.337500X-0.475000X0.337500X-0.475000X0.337500X0.475000X-0.337500X0.475000X0*%
%ADD29RoundRect,0.150000X-0.150000X0.587500X-0.150000X-0.587500X0.150000X-0.587500X0.150000X0.587500X0*%
%ADD30R,2.400000X0.740000*%
G04 APERTURE END LIST*
D10*
X83500000Y-60000000D03*
X81500000Y-60000000D03*
D11*
X67750000Y-88500000D03*
X67750000Y-90500000D03*
D12*
X88325000Y-95650000D03*
X88325000Y-97550000D03*
X90200000Y-96600000D03*
D13*
X82260000Y-100560000D03*
X82260000Y-102635000D03*
D14*
X71794000Y-88138000D03*
X71794000Y-89408000D03*
X71794000Y-90678000D03*
X71794000Y-91948000D03*
X78994000Y-91948000D03*
X78994000Y-90678000D03*
X78994000Y-89408000D03*
X78994000Y-88138000D03*
D12*
X76000000Y-95400000D03*
X76000000Y-97300000D03*
X77875000Y-96350000D03*
D15*
X74750000Y-70000000D03*
X67000000Y-70000000D03*
D16*
X107565000Y-60625000D03*
X109565000Y-60625000D03*
X103025000Y-57450000D03*
X105025000Y-57450000D03*
X91871000Y-78712000D03*
X93871000Y-78712000D03*
D17*
X92775000Y-95595000D03*
X92775000Y-96865000D03*
X92775000Y-98135000D03*
X92775000Y-99405000D03*
X97725000Y-99405000D03*
X97725000Y-98135000D03*
X97725000Y-96865000D03*
X97725000Y-95595000D03*
D16*
X79026000Y-71120000D03*
X81026000Y-71120000D03*
D18*
X80971000Y-74115000D03*
X79121000Y-74115000D03*
X79121000Y-75565000D03*
X80971000Y-75565000D03*
D19*
X84875000Y-105175000D03*
X87975000Y-105175000D03*
D20*
X101000000Y-98000000D03*
X101000000Y-96000000D03*
D21*
X85190000Y-100065000D03*
X85190000Y-100705000D03*
X85190000Y-101365000D03*
X85190000Y-102005000D03*
X88610000Y-102005000D03*
X88610000Y-101365000D03*
X88610000Y-100705000D03*
X88610000Y-100065000D03*
D22*
X69555000Y-112555000D03*
X72530000Y-112555000D03*
X69747500Y-119805000D03*
X72722500Y-119805000D03*
D17*
X86806000Y-63373000D03*
X86806000Y-64643000D03*
X86806000Y-65913000D03*
X86806000Y-67183000D03*
X91756000Y-67183000D03*
X91756000Y-65913000D03*
X91756000Y-64643000D03*
X91756000Y-63373000D03*
D13*
X83947000Y-73765500D03*
X83947000Y-75840500D03*
D11*
X90532000Y-90126500D03*
X90532000Y-92126500D03*
D23*
X94887500Y-57050000D03*
X94887500Y-57700000D03*
X94887500Y-58350000D03*
X94887500Y-59000000D03*
X94887500Y-59650000D03*
X94887500Y-60300000D03*
X94887500Y-60950000D03*
X100612500Y-60950000D03*
X100612500Y-60300000D03*
X100612500Y-59650000D03*
X100612500Y-59000000D03*
X100612500Y-58350000D03*
X100612500Y-57700000D03*
X100612500Y-57050000D03*
D24*
X75819000Y-75438000D03*
X75819000Y-73363000D03*
X83693000Y-88011000D03*
X83693000Y-85936000D03*
D10*
X77180000Y-115955000D03*
X75180000Y-115955000D03*
X87975000Y-59990000D03*
X85975000Y-59990000D03*
D16*
X103120000Y-60625000D03*
X105120000Y-60625000D03*
D25*
X78238000Y-77359000D03*
X77438000Y-77359000D03*
X76638000Y-77359000D03*
X75838000Y-77359000D03*
X75038000Y-77359000D03*
X74238000Y-77359000D03*
X73438000Y-77359000D03*
X72638000Y-77359000D03*
D26*
X71263000Y-78734000D03*
X71263000Y-79534000D03*
X71263000Y-80334000D03*
X71263000Y-81134000D03*
X71263000Y-81934000D03*
X71263000Y-82734000D03*
X71263000Y-83534000D03*
X71263000Y-84334000D03*
D25*
X72638000Y-85709000D03*
X73438000Y-85709000D03*
X74238000Y-85709000D03*
X75038000Y-85709000D03*
X75838000Y-85709000D03*
X76638000Y-85709000D03*
X77438000Y-85709000D03*
X78238000Y-85709000D03*
D26*
X79613000Y-84334000D03*
X79613000Y-83534000D03*
X79613000Y-82734000D03*
X79613000Y-81934000D03*
X79613000Y-81134000D03*
X79613000Y-80334000D03*
X79613000Y-79534000D03*
X79613000Y-78734000D03*
D20*
X83750000Y-93500000D03*
X83750000Y-91500000D03*
D10*
X92325000Y-56815000D03*
X90325000Y-56815000D03*
D11*
X88750000Y-73500000D03*
X88750000Y-75500000D03*
D10*
X87880000Y-56815000D03*
X85880000Y-56815000D03*
D19*
X74080000Y-104540000D03*
X77180000Y-104540000D03*
D27*
X63590000Y-51705000D03*
X63590000Y-52655000D03*
X63590000Y-53605000D03*
X66290000Y-53605000D03*
X66290000Y-52655000D03*
X66290000Y-51705000D03*
D21*
X73760000Y-99455000D03*
X73760000Y-100095000D03*
X73760000Y-100755000D03*
X73760000Y-101395000D03*
X77180000Y-101395000D03*
X77180000Y-100755000D03*
X77180000Y-100095000D03*
X77180000Y-99455000D03*
D16*
X94141000Y-87602000D03*
X96141000Y-87602000D03*
D24*
X73279000Y-75438000D03*
X73279000Y-73363000D03*
D20*
X88750000Y-79250000D03*
X88750000Y-77250000D03*
D28*
X61770000Y-118495000D03*
X63845000Y-118495000D03*
D29*
X93726000Y-81407000D03*
X91826000Y-81407000D03*
X92776000Y-83282000D03*
D11*
X88696000Y-81157000D03*
X88696000Y-83157000D03*
D16*
X107470000Y-57450000D03*
X109470000Y-57450000D03*
D28*
X102717500Y-89170000D03*
X104792500Y-89170000D03*
D22*
X69555000Y-115945000D03*
X72530000Y-115945000D03*
D27*
X129630000Y-119970000D03*
X129630000Y-120920000D03*
X129630000Y-121870000D03*
X132330000Y-121870000D03*
X132330000Y-120920000D03*
X132330000Y-119970000D03*
D10*
X77180000Y-119755000D03*
X75180000Y-119755000D03*
D30*
X65300000Y-59710000D03*
X69200000Y-59710000D03*
X65300000Y-60980000D03*
X69200000Y-60980000D03*
X65300000Y-62250000D03*
X69200000Y-62250000D03*
X65300000Y-63520000D03*
X69200000Y-63520000D03*
X65300000Y-64790000D03*
X69200000Y-64790000D03*
D10*
X77180000Y-109375000D03*
X75180000Y-109375000D03*
D29*
X95977000Y-90139000D03*
X94077000Y-90139000D03*
X95027000Y-92014000D03*
D27*
X117650000Y-53050000D03*
X117650000Y-54000000D03*
X117650000Y-54950000D03*
X120350000Y-54950000D03*
X120350000Y-54000000D03*
X120350000Y-53050000D03*
D10*
X92420000Y-59990000D03*
X90420000Y-59990000D03*
D28*
X73257500Y-66421000D03*
X75332500Y-66421000D03*
X62172500Y-95635000D03*
X64247500Y-95635000D03*
D10*
X83500000Y-56820000D03*
X81500000Y-56820000D03*
D13*
X70830000Y-99925000D03*
X70830000Y-102000000D03*
D28*
X102717500Y-85820000D03*
X104792500Y-85820000D03*
D24*
X81153000Y-88011000D03*
X81153000Y-85936000D03*
D23*
X98665000Y-63710000D03*
X98665000Y-64360000D03*
X98665000Y-65010000D03*
X98665000Y-65660000D03*
X98665000Y-66310000D03*
X98665000Y-66960000D03*
X98665000Y-67610000D03*
X98665000Y-68260000D03*
X98665000Y-68910000D03*
X98665000Y-69560000D03*
X104390000Y-69560000D03*
X104390000Y-68910000D03*
X104390000Y-68260000D03*
X104390000Y-67610000D03*
X104390000Y-66960000D03*
X104390000Y-66310000D03*
X104390000Y-65660000D03*
X104390000Y-65010000D03*
X104390000Y-64360000D03*
X104390000Y-63710000D03*
D10*
X77180000Y-112665000D03*
X75180000Y-112665000D03*
D22*
X69555000Y-109165000D03*
X72530000Y-109165000D03*
D27*
X53430000Y-118385000D03*
X53430000Y-119335000D03*
X53430000Y-120285000D03*
X56130000Y-120285000D03*
X56130000Y-119335000D03*
X56130000Y-118385000D03*
M02*
